<svg width="503" height="70" viewBox="0 0 503 70" fill="none" xmlns="http://www.w3.org/2000/svg">
<rect width="503" height="70" rx="16" fill="white"/>
<circle cx="39.9997" cy="39.2693" r="16.1071" fill="#FACC48"/>
<path d="M28.0312 14H51.8225V18.8765C51.8225 18.8765 49.3104 21.4625 39.9269 21.4625C30.5434 21.4625 28.0312 18.8765 28.0312 18.8765V14Z" fill="#7F67FB"/>
<path fill-rule="evenodd" clip-rule="evenodd" d="M41.6249 27.5581C41.0935 27.485 40.5509 27.4473 39.9995 27.4473C33.4705 27.4473 28.1777 32.74 28.1777 39.269C28.1777 45.798 33.4705 51.0908 39.9995 51.0908C40.5509 51.0908 41.0935 51.053 41.6249 50.98V27.5581Z" fill="#ECB541"/>
<path d="M38.5151 45.1743L33.0754 39.7346C32.9021 39.5613 32.9079 39.2788 33.0881 39.1128L35.251 37.1206C35.4251 36.9603 35.6959 36.9703 35.8577 37.1431L38.5181 39.985C38.6823 40.1603 38.9581 40.1677 39.1313 40.0013L45.9787 33.4251C46.1462 33.2642 46.411 33.265 46.5775 33.4268L48.5478 35.3407C48.7216 35.5096 48.7221 35.7886 48.5488 35.958L39.1212 45.1777C38.9523 45.3428 38.6821 45.3413 38.5151 45.1743Z" fill="white"/>
<path d="M80.748 41.144L81.396 40.946C81.666 40.856 81.684 40.694 81.54 40.442L79.254 36.446C80.586 35.78 81.288 34.592 81.288 33.008C81.288 30.452 79.488 28.94 76.14 28.94H73.98C73.62 28.94 73.44 29.12 73.44 29.48V40.64C73.44 41 73.62 41.18 73.98 41.18H74.412C74.772 41.18 74.952 41 74.952 40.64V37.076H76.14C76.77 37.076 77.346 37.022 77.868 36.914L80.172 40.91C80.316 41.162 80.478 41.234 80.748 41.144ZM76.212 30.542C78.66 30.542 79.776 31.514 79.776 33.008C79.776 34.484 78.66 35.474 76.212 35.474H74.952V30.542H76.212ZM87.5652 41.18C88.6452 41.18 89.8872 40.838 90.4632 40.424C90.6252 40.316 90.6432 40.19 90.5712 40.01L90.2652 39.218C90.2112 39.074 90.1032 39.02 89.9412 39.092C89.4012 39.38 88.4472 39.632 87.5652 39.632C85.8372 39.632 84.8112 38.678 84.5592 37.382L90.3552 36.716C90.6792 36.68 90.7332 36.554 90.7332 36.194C90.7332 33.458 89.0772 32 87.1152 32C84.5232 32 83.0472 34.232 83.0472 36.68C83.0472 39.362 84.8292 41.18 87.5652 41.18ZM87.0252 33.53C88.1592 33.53 89.0232 34.304 89.1672 35.402L84.5412 35.942C84.7752 34.412 85.7112 33.53 87.0252 33.53ZM93.9175 36.77C93.9175 34.718 94.9435 33.71 96.6355 33.71C97.4635 33.71 98.3815 33.98 98.9215 34.268C99.0655 34.34 99.1915 34.286 99.2455 34.142L99.5515 33.35C99.6235 33.188 99.5875 33.044 99.4435 32.936C98.8675 32.522 97.6615 32.18 96.6175 32.18C94.1155 32.18 92.4775 33.998 92.4775 36.77C92.4775 39.452 94.1155 41.18 96.6175 41.18C97.7335 41.18 99.0295 40.856 99.6235 40.424C99.7675 40.316 99.8035 40.172 99.7315 40.01L99.4255 39.218C99.3715 39.074 99.2455 39.02 99.1015 39.092C98.5255 39.398 97.5355 39.65 96.6355 39.65C94.9435 39.65 93.9175 38.714 93.9175 36.77ZM105.503 41.18C108.077 41.18 109.643 39.254 109.643 36.68C109.643 33.998 108.077 32 105.503 32C102.929 32 101.345 33.998 101.345 36.68C101.345 39.254 102.929 41.18 105.503 41.18ZM105.503 39.65C103.847 39.65 102.785 38.678 102.785 36.68C102.785 34.556 103.847 33.53 105.503 33.53C107.159 33.53 108.203 34.574 108.203 36.68C108.203 38.678 107.159 39.65 105.503 39.65ZM115.547 44.78C117.599 44.78 119.219 43.844 119.219 41.018V32C119.219 31.64 119.039 31.46 118.679 31.46H118.319C117.959 31.46 117.779 31.64 117.779 32V32.612C116.951 32.234 116.051 32 115.259 32C113.135 32 111.461 33.71 111.461 36.41C111.461 39.2 113.063 41 115.079 41C116.087 41 117.095 40.586 117.779 39.722V40.766C117.779 42.818 116.807 43.25 115.511 43.25C114.557 43.25 113.351 42.944 112.865 42.692C112.721 42.62 112.595 42.674 112.541 42.818L112.217 43.628C112.145 43.79 112.199 43.934 112.361 44.024C112.991 44.402 114.269 44.78 115.547 44.78ZM115.367 39.47C114.071 39.47 112.901 38.372 112.901 36.41C112.901 34.466 113.909 33.53 115.259 33.53C116.123 33.53 117.005 33.782 117.779 34.304V36.932C117.779 38.372 116.627 39.47 115.367 39.47ZM123.361 40.64V36.068C123.361 34.628 124.513 33.53 125.773 33.53C127.015 33.53 127.789 34.322 127.789 35.978V40.46C127.789 40.82 127.969 41 128.329 41H128.689C129.049 41 129.229 40.82 129.229 40.46V35.348C129.229 33.008 127.987 32 126.277 32C125.161 32 124.081 32.558 123.361 33.458V32.18C123.361 31.82 123.181 31.64 122.821 31.64H122.461C122.101 31.64 121.921 31.82 121.921 32.18V40.64C121.921 41 122.101 41.18 122.461 41.18H122.821C123.181 41.18 123.361 41 123.361 40.64ZM132.511 30.398C133.195 30.398 133.681 29.894 133.681 29.21C133.681 28.544 133.177 28.04 132.511 28.04C131.845 28.04 131.341 28.544 131.341 29.21C131.341 29.894 131.827 30.398 132.511 30.398ZM133.231 40.46V32.9C133.231 32.54 133.051 32.36 132.691 32.36H132.331C131.971 32.36 131.791 32.54 131.791 32.9V40.46C131.791 40.82 131.971 41 132.331 41H132.691C133.051 41 133.231 40.82 133.231 40.46ZM142.069 40.802C142.195 40.712 142.249 40.568 142.177 40.406L141.799 39.578C141.727 39.416 141.601 39.398 141.457 39.47C141.169 39.614 140.485 39.848 139.981 39.848C139.009 39.848 138.595 39.326 138.595 37.616V34.178L141.259 34.268C141.511 34.268 141.691 34.07 141.691 33.836V33.116C141.691 32.882 141.619 32.738 141.367 32.738L138.595 32.648V30.38C138.595 30.146 138.469 30.02 138.235 30.02H137.515C137.281 30.02 137.155 30.146 137.155 30.38V32.594L135.805 32.558C135.553 32.558 135.373 32.756 135.373 32.99V33.71C135.373 33.944 135.445 34.088 135.697 34.088L137.155 34.142V38.048C137.155 40.352 138.235 41.36 140.017 41.36C140.809 41.36 141.601 41.108 142.069 40.802ZM144.99 30.398C145.674 30.398 146.16 29.894 146.16 29.21C146.16 28.544 145.656 28.04 144.99 28.04C144.324 28.04 143.82 28.544 143.82 29.21C143.82 29.894 144.306 30.398 144.99 30.398ZM145.71 40.46V32.9C145.71 32.54 145.53 32.36 145.17 32.36H144.81C144.45 32.36 144.27 32.54 144.27 32.9V40.46C144.27 40.82 144.45 41 144.81 41H145.17C145.53 41 145.71 40.82 145.71 40.46ZM152.118 41.18C154.692 41.18 156.258 39.254 156.258 36.68C156.258 33.998 154.692 32 152.118 32C149.544 32 147.96 33.998 147.96 36.68C147.96 39.254 149.544 41.18 152.118 41.18ZM152.118 39.65C150.462 39.65 149.4 38.678 149.4 36.68C149.4 34.556 150.462 33.53 152.118 33.53C153.774 33.53 154.818 34.574 154.818 36.68C154.818 38.678 153.774 39.65 152.118 39.65ZM159.966 40.64V36.068C159.966 34.628 161.118 33.53 162.378 33.53C163.62 33.53 164.394 34.322 164.394 35.978V40.46C164.394 40.82 164.574 41 164.934 41H165.294C165.654 41 165.834 40.82 165.834 40.46V35.348C165.834 33.008 164.592 32 162.882 32C161.766 32 160.686 32.558 159.966 33.458V32.18C159.966 31.82 159.786 31.64 159.426 31.64H159.066C158.706 31.64 158.526 31.82 158.526 32.18V40.64C158.526 41 158.706 41.18 159.066 41.18H159.426C159.786 41.18 159.966 41 159.966 40.64ZM174.672 40.64V33.8L176.796 33.728C177.048 33.71 177.228 33.53 177.228 33.296V32.576C177.228 32.342 177.156 32.18 176.904 32.198L174.672 32.27V31.604C174.672 30.074 175.05 29.408 175.95 29.372C176.04 29.372 176.13 29.372 176.238 29.39L176.616 29.426C176.94 29.462 177.048 29.39 177.102 29.138L177.192 28.598L177.246 28.328C177.3 28.04 177.21 27.932 176.922 27.914C176.85 27.914 176.76 27.896 176.688 27.896L176.454 27.878C174.456 27.716 173.232 28.886 173.232 31.172V32.324L171.882 32.378C171.63 32.396 171.45 32.576 171.45 32.81V33.53C171.45 33.764 171.522 33.926 171.774 33.908L173.232 33.854V40.64C173.232 40.874 173.358 41 173.592 41H174.312C174.546 41 174.672 40.874 174.672 40.64ZM180.821 40.64V35.888C180.821 34.628 181.649 33.71 182.747 33.71C183.017 33.71 183.341 33.764 183.845 33.854C184.025 33.89 184.151 33.872 184.187 33.656L184.367 32.54C184.385 32.378 184.367 32.306 184.241 32.234C184.007 32.108 183.575 32 183.161 32C182.189 32 181.379 32.432 180.821 33.152V32C180.821 31.64 180.641 31.46 180.281 31.46H179.921C179.561 31.46 179.381 31.64 179.381 32V40.64C179.381 41 179.561 41.18 179.921 41.18H180.281C180.641 41.18 180.821 41 180.821 40.64ZM189.813 41.18C192.387 41.18 193.953 39.254 193.953 36.68C193.953 33.998 192.387 32 189.813 32C187.239 32 185.655 33.998 185.655 36.68C185.655 39.254 187.239 41.18 189.813 41.18ZM189.813 39.65C188.157 39.65 187.095 38.678 187.095 36.68C187.095 34.556 188.157 33.53 189.813 33.53C191.469 33.53 192.513 34.574 192.513 36.68C192.513 38.678 191.469 39.65 189.813 39.65ZM203.258 40.64V36.968C203.258 34.7 204.122 33.71 205.544 33.71C206.714 33.71 207.416 34.61 207.416 36.518V40.46C207.416 40.82 207.596 41 207.956 41H208.316C208.676 41 208.856 40.82 208.856 40.46V35.888C208.856 33.476 207.668 32.18 206.048 32.18C204.734 32.18 203.654 32.738 202.97 33.89C202.538 32.648 201.602 32 200.45 32C199.28 32 198.308 32.486 197.66 33.512V32C197.66 31.64 197.48 31.46 197.12 31.46H196.76C196.4 31.46 196.22 31.64 196.22 32V40.46C196.22 40.82 196.4 41 196.76 41H197.12C197.48 41 197.66 40.82 197.66 40.46V36.788C197.66 34.52 198.524 33.53 199.946 33.53C201.116 33.53 201.818 34.43 201.818 36.338V40.64C201.818 41 201.998 41.18 202.358 41.18H202.718C203.078 41.18 203.258 41 203.258 40.64ZM216.81 40.64V29.3C216.81 28.94 216.63 28.76 216.27 28.76H215.838C215.478 28.76 215.298 28.94 215.298 29.3V40.64C215.298 41 215.478 41.18 215.838 41.18H216.27C216.63 41.18 216.81 41 216.81 40.64ZM221.223 40.64V36.068C221.223 34.628 222.375 33.53 223.635 33.53C224.877 33.53 225.651 34.322 225.651 35.978V40.46C225.651 40.82 225.831 41 226.191 41H226.551C226.911 41 227.091 40.82 227.091 40.46V35.348C227.091 33.008 225.849 32 224.139 32C223.023 32 221.943 32.558 221.223 33.458V32.18C221.223 31.82 221.043 31.64 220.683 31.64H220.323C219.963 31.64 219.783 31.82 219.783 32.18V40.64C219.783 41 219.963 41.18 220.323 41.18H220.683C221.043 41.18 221.223 41 221.223 40.64ZM236.456 41.18C236.816 41.18 236.996 41 236.996 40.64V28.58C236.996 28.22 236.816 28.04 236.456 28.04H236.096C235.736 28.04 235.556 28.22 235.556 28.58V32.612C234.728 32.234 233.828 32 233.036 32C230.912 32 229.238 33.71 229.238 36.41C229.238 39.2 230.84 41 232.856 41C233.864 41 234.872 40.586 235.556 39.722V40.64C235.556 41 235.736 41.18 236.096 41.18H236.456ZM233.144 39.47C231.848 39.47 230.678 38.372 230.678 36.41C230.678 34.466 231.686 33.53 233.036 33.53C233.9 33.53 234.782 33.782 235.556 34.304V36.932C235.556 38.372 234.404 39.47 233.144 39.47ZM240.4 30.398C241.084 30.398 241.57 29.894 241.57 29.21C241.57 28.544 241.066 28.04 240.4 28.04C239.734 28.04 239.23 28.544 239.23 29.21C239.23 29.894 239.716 30.398 240.4 30.398ZM241.12 40.46V32.9C241.12 32.54 240.94 32.36 240.58 32.36H240.22C239.86 32.36 239.68 32.54 239.68 32.9V40.46C239.68 40.82 239.86 41 240.22 41H240.58C240.94 41 241.12 40.82 241.12 40.46ZM250.03 41.36C250.264 41.36 250.39 41.234 250.39 41V35.726C250.39 33.134 249.022 31.82 246.826 31.82C245.566 31.82 244.432 32.216 243.694 32.72C243.568 32.81 243.514 32.954 243.586 33.116C243.622 33.206 243.676 33.296 243.712 33.386L243.982 33.926C244.054 34.07 244.18 34.124 244.324 34.034C245.026 33.602 245.836 33.35 246.538 33.35C248.05 33.35 248.95 34.178 248.95 35.798V35.96C248.176 35.636 247.258 35.492 246.448 35.492C244.198 35.492 243.316 36.77 243.316 38.246C243.316 39.812 244.432 41.018 246.088 41.162C246.196 41.18 246.322 41.18 246.448 41.18C247.438 41.18 248.356 40.82 248.95 40.244V41C248.95 41.234 249.076 41.36 249.31 41.36H250.03ZM246.538 39.65C245.584 39.65 244.756 39.11 244.756 38.174C244.756 37.418 245.35 36.932 246.538 36.932C247.276 36.932 248.194 37.094 248.95 37.382V38.138C248.95 38.93 247.834 39.65 246.538 39.65ZM254.715 30.65C254.715 29.39 254.139 28.688 253.347 28.688C252.645 28.688 252.141 29.228 252.141 29.858C252.141 30.686 252.771 31.1 253.455 31.1L253.473 31.244C253.545 31.892 253.275 32.252 252.357 32.18C252.195 32.162 252.105 32.342 252.105 32.522V33.026C252.105 33.188 252.213 33.278 252.465 33.278C254.283 33.278 254.715 32.126 254.715 30.65ZM256.802 34.556C256.802 37.598 261.464 36.986 261.464 38.714C261.464 39.308 260.888 39.65 259.754 39.65C259.052 39.65 258.206 39.452 257.378 39.038C257.234 38.966 257.108 39.002 257.036 39.164L256.64 39.974C256.568 40.136 256.622 40.28 256.766 40.37C257.468 40.82 258.764 41.18 259.646 41.18C261.698 41.18 262.904 40.226 262.904 38.714C262.904 35.672 258.242 36.284 258.242 34.556C258.242 33.908 258.764 33.53 259.772 33.53C260.384 33.53 261.122 33.71 261.77 33.98C261.914 34.034 262.058 33.98 262.13 33.836L262.526 33.026C262.598 32.864 262.544 32.72 262.4 32.63C261.842 32.27 260.654 32 259.88 32C257.792 32 256.802 33.08 256.802 34.556Z" fill="#646464"/>
<path d="M276.75 40.28V31.64H279.918C280.386 31.64 280.62 31.406 280.62 30.938V29.66C280.62 29.174 280.386 28.94 279.9 28.94H270.972C270.486 28.94 270.252 29.174 270.252 29.66V30.938C270.252 31.406 270.486 31.64 270.954 31.64H274.14V40.28C274.14 40.766 274.374 41 274.86 41H276.03C276.516 41 276.75 40.766 276.75 40.28ZM284.783 41.216C287.591 41.216 289.301 39.2 289.301 36.5C289.301 33.8 287.591 31.784 284.783 31.784C281.975 31.784 280.265 33.8 280.265 36.5C280.265 39.2 281.975 41.216 284.783 41.216ZM284.783 38.606C283.685 38.606 282.785 38.03 282.785 36.5C282.785 34.97 283.685 34.394 284.783 34.394C285.881 34.394 286.781 34.97 286.781 36.5C286.781 38.03 285.881 38.606 284.783 38.606ZM293.368 44.06V41C293.962 41.144 294.556 41.216 295.168 41.216C297.706 41.216 299.686 39.434 299.686 36.608C299.686 33.818 297.976 32 295.888 32C294.898 32 293.998 32.36 293.368 33.026V32.36C293.368 31.874 293.134 31.64 292.648 31.64H291.568C291.082 31.64 290.848 31.874 290.848 32.36V44.06C290.848 44.546 291.082 44.78 291.568 44.78H292.648C293.134 44.78 293.368 44.546 293.368 44.06ZM295.168 38.624C294.484 38.624 293.908 38.534 293.368 38.354V37.004C293.368 35.474 294.106 34.61 295.366 34.61C296.464 34.61 297.166 35.438 297.166 36.608C297.166 37.958 296.32 38.624 295.168 38.624ZM310.861 38.516C308.647 38.516 307.495 37.022 307.495 34.97C307.495 32.954 308.647 31.424 310.861 31.424C311.743 31.424 312.895 31.802 313.489 32.072C313.903 32.252 314.119 32.162 314.263 31.802L314.803 30.47C314.947 30.128 314.911 29.948 314.695 29.804C313.543 29.102 312.121 28.724 310.861 28.724C307.243 28.724 304.885 31.208 304.885 34.97C304.885 38.768 307.243 41.216 310.825 41.216C312.103 41.216 313.525 40.838 314.695 40.136C314.911 39.992 314.947 39.812 314.803 39.47L314.263 38.138C314.119 37.778 313.903 37.688 313.489 37.868C312.895 38.138 311.743 38.516 310.861 38.516ZM318.97 40.28V36.788C318.97 35.132 319.744 34.394 320.932 34.394C321.796 34.394 322.318 35.024 322.318 36.338V40.64C322.318 41.126 322.552 41.36 323.038 41.36H324.118C324.604 41.36 324.838 41.126 324.838 40.64V35.528C324.838 32.918 323.542 31.784 321.796 31.784C320.788 31.784 319.654 32.288 318.97 33.35V29.12C318.97 28.634 318.736 28.4 318.25 28.4H317.17C316.684 28.4 316.45 28.634 316.45 29.12V40.28C316.45 40.766 316.684 41 317.17 41H318.25C318.736 41 318.97 40.766 318.97 40.28ZM327.949 31.118C328.777 31.118 329.479 30.416 329.479 29.57C329.479 28.742 328.777 28.04 327.949 28.04C327.121 28.04 326.419 28.742 326.419 29.57C326.419 30.416 327.121 31.118 327.949 31.118ZM329.209 40.28V33.08C329.209 32.594 328.975 32.36 328.489 32.36H327.409C326.923 32.36 326.689 32.594 326.689 33.08V40.28C326.689 40.766 326.923 41 327.409 41H328.489C328.975 41 329.209 40.766 329.209 40.28ZM333.807 40.28V28.76C333.807 28.274 333.573 28.04 333.087 28.04H331.917C331.431 28.04 331.197 28.274 331.197 28.76V40.28C331.197 40.766 331.431 41 331.917 41H333.087C333.573 41 333.807 40.766 333.807 40.28ZM343.48 41.36C343.966 41.36 344.2 41.126 344.2 40.64V28.76C344.2 28.274 343.966 28.04 343.48 28.04H342.4C341.914 28.04 341.68 28.274 341.68 28.76V32C341.086 31.856 340.492 31.784 339.88 31.784C337.342 31.784 335.362 33.566 335.362 36.392C335.362 39.182 337.072 41 339.16 41C340.15 41 341.05 40.64 341.68 39.974V40.64C341.68 41.126 341.914 41.36 342.4 41.36H343.48ZM339.682 38.39C338.584 38.39 337.882 37.562 337.882 36.392C337.882 35.042 338.728 34.376 339.88 34.376C340.564 34.376 341.14 34.466 341.68 34.646V35.996C341.68 37.526 340.942 38.39 339.682 38.39ZM352.297 41.36C352.783 41.36 353.017 41.126 353.017 40.64V38.282L353.935 38.192C356.815 37.904 359.299 36.608 359.299 33.548C359.299 30.182 357.031 28.94 353.971 28.94H351.127C350.641 28.94 350.407 29.174 350.407 29.66V40.64C350.407 41.126 350.641 41.36 351.127 41.36H352.297ZM354.043 31.64C355.429 31.64 356.689 32.072 356.689 33.548C356.689 34.754 355.411 35.366 354.007 35.492L353.017 35.582V31.64H354.043ZM360.616 34.682C360.616 38.048 365.008 37.058 365.008 38.354C365.008 38.714 364.648 38.84 364.054 38.84C363.154 38.84 362.2 38.48 361.606 38.156C361.336 37.994 361.048 38.174 360.94 38.48L360.58 39.488C360.472 39.776 360.364 40.01 360.652 40.244C361.498 40.928 362.74 41.216 363.91 41.216C365.584 41.216 367.438 40.388 367.438 38.048C367.438 34.79 363.046 35.852 363.046 34.556C363.046 34.232 363.28 34.07 363.748 34.07C364.486 34.07 365.134 34.286 365.998 34.628C366.268 34.736 366.538 34.61 366.664 34.304L367.042 33.368C367.168 33.08 367.258 32.828 366.97 32.612C366.196 32.036 364.954 31.784 364 31.784C361.876 31.784 360.616 33.026 360.616 34.682ZM372.977 44.78C375.335 44.78 377.189 43.664 377.189 40.838V32.72C377.189 32.234 376.955 32 376.469 32H375.389C374.903 32 374.669 32.234 374.669 32.72V35.852C374.669 37.508 373.895 38.246 372.707 38.246C371.843 38.246 371.321 37.616 371.321 36.302V32.36C371.321 31.874 371.087 31.64 370.601 31.64H369.521C369.035 31.64 368.801 31.874 368.801 32.36V37.112C368.801 39.722 370.097 40.856 371.843 40.856C372.851 40.856 373.985 40.352 374.669 39.29V40.586C374.669 41.81 373.931 42.17 372.941 42.17C372.095 42.17 371.087 41.792 370.403 41.414C370.079 41.216 369.935 41.414 369.737 41.918L369.305 42.998C369.179 43.304 369.089 43.52 369.377 43.754C370.295 44.492 371.735 44.78 372.977 44.78ZM381.254 36.626C381.254 35.276 381.992 34.61 383.216 34.61C383.954 34.61 384.872 34.952 385.466 35.294C385.736 35.456 385.97 35.312 386.132 34.97L386.636 33.836C386.78 33.53 386.852 33.314 386.564 33.08C385.682 32.378 384.35 32 383.198 32C380.498 32 378.734 33.836 378.734 36.626C378.734 39.416 380.498 41.216 383.198 41.216C384.35 41.216 385.682 40.838 386.564 40.136C386.852 39.902 386.78 39.686 386.636 39.38L386.132 38.246C385.97 37.904 385.736 37.76 385.466 37.922C384.872 38.264 383.954 38.606 383.216 38.606C381.992 38.606 381.254 37.976 381.254 36.626ZM390.765 40.28V36.788C390.765 35.132 391.539 34.394 392.727 34.394C393.591 34.394 394.113 35.024 394.113 36.338V40.64C394.113 41.126 394.347 41.36 394.833 41.36H395.913C396.399 41.36 396.633 41.126 396.633 40.64V35.528C396.633 32.918 395.337 31.784 393.591 31.784C392.583 31.784 391.449 32.288 390.765 33.35V29.12C390.765 28.634 390.531 28.4 390.045 28.4H388.965C388.479 28.4 388.245 28.634 388.245 29.12V40.28C388.245 40.766 388.479 41 388.965 41H390.045C390.531 41 390.765 40.766 390.765 40.28ZM405.611 41.54C405.845 41.54 406.007 41.468 406.097 41.306C406.133 41.216 406.151 41.126 406.151 41V35.726C406.151 33.17 404.567 31.604 402.047 31.604C400.679 31.604 399.365 32.018 398.519 32.684C398.321 32.828 398.285 32.972 398.321 33.152C398.357 33.242 398.393 33.332 398.447 33.44L398.717 33.962L398.969 34.484C399.149 34.826 399.365 34.97 399.635 34.808C400.337 34.376 401.093 34.124 401.759 34.124C402.731 34.124 403.379 34.574 403.577 35.438C403.595 35.546 403.613 35.654 403.631 35.78C402.947 35.492 402.173 35.312 401.489 35.312C398.987 35.312 397.997 36.68 397.997 38.246C397.997 39.938 399.275 41.216 401.129 41.216C401.219 41.216 401.327 41.216 401.435 41.198C402.227 41.126 403.073 40.766 403.631 40.226V41C403.631 41.36 403.811 41.54 404.171 41.54H405.611ZM401.759 38.966C401.093 38.966 400.517 38.678 400.517 38.174C400.517 37.652 400.931 37.382 401.759 37.382C402.335 37.382 403.019 37.508 403.631 37.742V37.814C403.631 37.922 403.613 38.03 403.559 38.138C403.325 38.678 402.497 38.966 401.759 38.966ZM415.112 40.424C415.418 40.208 415.328 39.974 415.184 39.668L414.716 38.624C414.572 38.282 414.32 38.138 414.05 38.3C413.654 38.552 413.132 38.822 412.664 38.822C411.908 38.822 411.44 38.444 411.44 37.292V35.564L413.924 35.708C414.284 35.726 414.536 35.438 414.536 35.096V33.656C414.536 33.314 414.428 33.116 414.032 33.098L411.44 32.936V30.74C411.44 30.38 411.26 30.2 410.9 30.2H409.46C409.1 30.2 408.92 30.38 408.92 30.74V32.792L407.984 32.738C407.624 32.72 407.372 33.008 407.372 33.35V34.79C407.372 35.132 407.48 35.33 407.876 35.348L408.92 35.402V37.742C408.92 40.172 410.054 41.396 412.016 41.396C413.096 41.396 414.284 41.054 415.112 40.424ZM419.179 40.28V36.788C419.179 35.33 419.935 34.574 420.925 34.574C421.231 34.574 421.573 34.61 422.077 34.718C422.383 34.79 422.545 34.7 422.563 34.43L422.743 32.36C422.761 32.234 422.725 32.108 422.581 32.018C422.347 31.874 421.933 31.784 421.537 31.784C420.691 31.784 419.773 32.342 419.179 33.314V31.82C419.179 31.334 418.945 31.1 418.459 31.1H417.379C416.893 31.1 416.659 31.334 416.659 31.82V40.28C416.659 40.766 416.893 41 417.379 41H418.459C418.945 41 419.179 40.766 419.179 40.28ZM425.345 31.118C426.173 31.118 426.875 30.416 426.875 29.57C426.875 28.742 426.173 28.04 425.345 28.04C424.517 28.04 423.815 28.742 423.815 29.57C423.815 30.416 424.517 31.118 425.345 31.118ZM426.605 40.28V33.08C426.605 32.594 426.371 32.36 425.885 32.36H424.805C424.319 32.36 424.085 32.594 424.085 33.08V40.28C424.085 40.766 424.319 41 424.805 41H425.885C426.371 41 426.605 40.766 426.605 40.28ZM428.341 34.682C428.341 38.048 432.733 37.058 432.733 38.354C432.733 38.714 432.373 38.84 431.779 38.84C430.879 38.84 429.925 38.48 429.331 38.156C429.061 37.994 428.773 38.174 428.665 38.48L428.305 39.488C428.197 39.776 428.089 40.01 428.377 40.244C429.223 40.928 430.465 41.216 431.635 41.216C433.309 41.216 435.163 40.388 435.163 38.048C435.163 34.79 430.771 35.852 430.771 34.556C430.771 34.232 431.005 34.07 431.473 34.07C432.211 34.07 432.859 34.286 433.723 34.628C433.993 34.736 434.263 34.61 434.389 34.304L434.767 33.368C434.893 33.08 434.983 32.828 434.695 32.612C433.921 32.036 432.679 31.784 431.725 31.784C429.601 31.784 428.341 33.026 428.341 34.682ZM443.781 40.424C444.087 40.208 443.997 39.974 443.853 39.668L443.385 38.624C443.241 38.282 442.989 38.138 442.719 38.3C442.323 38.552 441.801 38.822 441.333 38.822C440.577 38.822 440.109 38.444 440.109 37.292V35.564L442.593 35.708C442.953 35.726 443.205 35.438 443.205 35.096V33.656C443.205 33.314 443.097 33.116 442.701 33.098L440.109 32.936V30.74C440.109 30.38 439.929 30.2 439.569 30.2H438.129C437.769 30.2 437.589 30.38 437.589 30.74V32.792L436.653 32.738C436.293 32.72 436.041 33.008 436.041 33.35V34.79C436.041 35.132 436.149 35.33 436.545 35.348L437.589 35.402V37.742C437.589 40.172 438.723 41.396 440.685 41.396C441.765 41.396 442.953 41.054 443.781 40.424ZM445.075 34.682C445.075 38.048 449.467 37.058 449.467 38.354C449.467 38.714 449.107 38.84 448.513 38.84C447.613 38.84 446.659 38.48 446.065 38.156C445.795 37.994 445.507 38.174 445.399 38.48L445.039 39.488C444.931 39.776 444.823 40.01 445.111 40.244C445.957 40.928 447.199 41.216 448.369 41.216C450.043 41.216 451.897 40.388 451.897 38.048C451.897 34.79 447.505 35.852 447.505 34.556C447.505 34.232 447.739 34.07 448.207 34.07C448.945 34.07 449.593 34.286 450.457 34.628C450.727 34.736 450.997 34.61 451.123 34.304L451.501 33.368C451.627 33.08 451.717 32.828 451.429 32.612C450.655 32.036 449.413 31.784 448.459 31.784C446.335 31.784 445.075 33.026 445.075 34.682Z" fill="#7F67FB"/>
<rect x="0.5" y="0.5" width="502" height="69" rx="15.5" stroke="#7F67FB" stroke-opacity="0.24"/>
</svg>
