<svg width="674" height="667" viewBox="0 0 674 667" fill="none" xmlns="http://www.w3.org/2000/svg">
<g clip-path="url(#clip0_608_33)">
<ellipse cx="346.613" cy="342" rx="314.5" ry="328" fill="#F8F8F8"/>
<path d="M220.465 466.205L231.405 498.789L245.711 491.45L230.866 460.65C230.866 460.65 221.172 465.666 220.465 466.205Z" fill="#79E1CF"/>
<path d="M291.29 373.771C309.655 368.587 327.425 361.49 344.306 352.598L427.853 365.726C427.853 365.726 443.136 374.578 444.987 374.848C450.216 374.421 455.453 375.597 460 378.214C466.16 382.489 478.48 382.489 481.678 383.027C486.295 384.52 490.707 386.59 494.806 389.187C498.003 391.072 512.208 395.617 514.632 397.232C517.056 398.848 522.643 400.599 523.99 407.331C525.872 415.603 527 424.032 527.356 432.509C527.087 438.669 525.505 455.264 523.081 461.694C520.657 468.123 510.222 501.582 509.616 505.453C509.011 509.324 507.765 535.445 506.25 540.831C504.736 546.217 497.431 574.492 496.152 579.642C494.873 584.793 485.178 610.442 483.563 614.987C481.947 619.531 479.523 627.845 480.197 631.312C481.17 635.068 481.442 638.97 481.004 642.824C480.466 647.133 483.967 668.272 482.889 669.753C481.812 671.235 444.314 672.951 431.22 668.946C418.125 664.94 365.883 670.561 344.71 669.484C323.537 668.407 267.593 667.868 259.581 666.118C251.57 664.368 241.64 663.997 246.453 658.645C251.267 653.293 251.806 645.787 252.075 638.449C252.78 631.814 254.121 625.267 256.081 618.891L239.25 503.602L263.957 453.11L291.29 373.771Z" fill="#BED4FC"/>
<path d="M523.721 340.784C527.928 343.746 527.39 343.107 523.721 343.578C520.052 344.049 518.133 344.184 517.695 346.574C517.336 348.521 516.784 350.425 516.046 352.263C515.875 352.134 515.715 351.988 515.575 351.825C508.842 341.929 514.06 344.487 501.706 343.477C499.249 343.477 506.015 341.188 508.001 336.745C508.741 335.095 505.274 328.935 507.227 330.013C513.151 333.143 511.232 331.999 511.973 332.436C514.195 333.816 520.792 328.397 523.317 327.656C524.091 333.109 517.864 336.475 523.721 340.784Z" fill="#FFEAB6"/>
<path d="M573.539 236.434C575.188 237.04 570.172 238.487 568.119 240.035C564.753 242.526 567.917 244.613 567.648 248.114C565.022 247.003 562.06 241.382 558.155 241.382C551.12 243.738 550.683 244.748 549.437 244.748C549.841 242.223 555.765 237.107 552.399 234.38C551.087 233.371 547.821 228.557 549.471 228.927C556.001 230.442 555.967 230.745 557.213 229.87C563.777 225.359 563.945 218.425 565.157 227.917C566.2 236.434 564.08 233.068 573.539 236.434Z" fill="#FFEAB6"/>
<path d="M565.358 125.554C565.189 125.789 565.055 126.092 564.819 126.193C556.337 130.569 555.764 130.031 556.269 132.926C557.548 140.903 557.245 139.658 557.043 141.038C548.056 132.892 551.624 133.935 550.311 133.7C547.82 133.329 543.175 136.123 538.698 137.066C537.15 137.066 537.756 136.729 541.627 130.334C545.902 123.366 525.099 115.119 543.141 120.235C546.508 121.211 545.902 120.74 552.028 112.493C553.98 109.834 552.735 121.851 557.279 122.255C558.861 122.255 561.049 124.14 564.651 124.948C564.917 125.113 565.156 125.317 565.358 125.554Z" fill="#FFEAB6"/>
<path d="M217.167 272.114C234.267 268.277 217.167 273.662 220.971 280.058C224.102 285.578 225.381 285.074 219.288 283.727C212.219 282.145 215.417 281.674 208.079 289.113C207.204 290.022 208.247 286.319 208.516 282.818C208.819 278.644 200.741 277.298 199.562 275.11C200.135 275.11 199.125 275.11 204.309 274.605C210.704 274.066 207.675 270.465 210.469 264.742C212.758 266.728 215.114 272.552 217.167 272.114Z" fill="#FFEAB6"/>
<path d="M251.57 196.444C252.412 197.858 248.204 196.444 242.246 194.223C238.88 192.977 239.654 190.453 231.71 201.561C228.647 205.903 233.124 192.001 228.041 190.116C216.529 185.808 216.529 186.75 229.185 182.172C231.946 181.162 230.633 175.137 232.552 169.953C244.569 181.196 234.437 180.253 252.008 176.214C249.416 183.148 244.03 185.134 247.127 188.736C248.846 191.161 250.334 193.742 251.57 196.444Z" fill="#FFEAB6"/>
<path d="M343.362 394C344.944 401.473 346.492 402.348 344.742 402.079C329.494 399.689 314.615 384.609 311.552 371.952C310.98 369.562 310.576 369.798 313.134 368.923C320.641 366.263 324.512 363.402 323.569 365.085C321.684 368.451 323.031 372.794 322.795 374.342C321.92 380.165 325.959 385.08 331.783 388.177C332.557 388.581 332.287 388.513 337.438 388.85C340.804 388.042 341.241 387.705 341.645 388.85C342.4 390.502 342.975 392.227 343.362 394Z" fill="#FFC6A6"/>
<path d="M463.332 137.738C472.555 141.609 475.147 142.215 468.92 143.763C465.015 142.821 464.544 142.753 462.187 137.973C461.952 137.367 462.692 137.468 463.332 137.738Z" fill="#E6FCFF"/>
<path d="M481.778 136.258C482.35 136.258 482.317 136.662 482.081 136.965C480.701 138.816 479.119 141.543 476.527 139.893C469.795 135.551 456.667 133.565 460.269 127.943C461.75 125.654 460.538 128.28 468.213 131.579C476.527 135.147 479.523 136.527 481.778 136.258Z" fill="#E6FCFF"/>
<path d="M484.539 128.986C486.592 129.188 484.067 132.857 480.802 132.79C475.383 130.905 459.057 124.913 463.568 121.345C464.106 120.941 463.837 119.797 464.611 119.864C465.958 119.864 464.174 121.278 473.094 124.846C482.014 128.414 482.788 128.717 484.539 128.986Z" fill="#E6FCFF"/>
<path d="M467.673 112.662C485.513 126.127 492.582 119.192 487.196 125.453C486.186 126.632 482.282 124.645 480.801 124.107C473.597 121.448 461.58 117.61 467.673 112.662Z" fill="#E6FCFF"/>
<path d="M514.868 88.7283C515.911 89.0313 515.137 91.4886 514.195 90.9836C510.627 89.1659 513.622 88.3244 514.868 88.7283Z" fill="#FFD152"/>
<path d="M479.286 79.506C477.435 81.0208 476.593 78.0923 477.805 77.7556C478.209 77.6547 478.916 78.9338 479.286 79.506Z" fill="#FFD152"/>
<path d="M491.978 51.971C533.685 51.7353 542.672 106.603 499.316 111.551C493.661 112.225 492.584 110.609 490.834 112.864C487.67 117.341 489.723 119.361 487.131 118.687C481.841 117.336 476.797 115.154 472.186 112.225C467.911 109.633 475.552 108.858 473.33 104.045C471.108 99.2313 471.007 102.9 467.507 97.3126C451.316 71.4945 474.273 50.9948 491.978 51.971ZM512.781 94.8553C514.902 100.106 521.499 87.6855 516.416 86.0361C511.333 84.3867 509.987 87.9548 509.179 87.7528C501.37 86.0024 506.217 87.0123 501.706 84.6897C499.619 83.6125 497.97 86.1371 496.287 83.7471C493.628 79.9098 495.546 83.7471 483.058 78.7653C482.183 78.4287 481.712 77.2169 481.038 76.409C480.365 75.6011 479.322 75.6011 478.076 75.2645C474.441 74.2883 472.354 81.7275 478.076 82.7036C478.682 82.7036 479.12 82.7036 478.918 83.7471C477.639 89.2339 485.078 93.8455 483.597 96.5047C481.585 100.353 480.166 104.484 479.389 108.757C479.221 109.767 480.13 109.229 480.5 109.532C481.914 110.743 482.587 104.415 486.222 97.5819C488.679 93.0376 481.543 88.4934 481.712 84.5887C481.914 79.5732 483.866 82.4344 488.444 83.8818C491.002 84.6897 492.955 83.8818 493.661 85.5648C494.119 86.4642 494.884 87.1696 495.816 87.5525C496.75 87.9357 497.788 87.9708 498.744 87.6518C501.841 86.844 501.033 89.2339 504.669 90.0081C508.304 90.7823 508.27 90.614 508.27 91.9605C508.27 92.4317 508.27 92.9366 507.698 93.0713C505.967 93.6618 504.318 94.4646 502.784 95.4612C500.865 96.3701 501.706 94.8217 498.509 96.9087C493.695 100.039 494.503 98.0531 492.483 99.6352C489.117 102.362 481.745 110.138 484.102 111.989C486.458 113.84 486.727 108.993 491.507 104.617C496.287 100.241 495.546 102.362 497.162 101.251C500.528 99.164 500.999 98.861 501.504 98.8274C504.399 98.5917 506.621 96.1681 508.809 95.9662C511.771 95.6969 510.997 93.1049 511.636 93.3069C512.276 93.5089 512.545 94.2831 512.781 94.8553Z" fill="#FFD152"/>
<path d="M224.271 83.1061C224.8 84.8551 224.786 86.7236 224.229 88.4641C223.673 90.2044 222.602 91.7351 221.156 92.853C219.711 93.9711 217.96 94.6238 216.136 94.7251C214.312 94.8261 212.5 94.3711 210.939 93.4196C209.38 92.4684 208.145 91.0656 207.4 89.3974C206.655 87.7292 206.433 85.8739 206.766 84.0772C207.098 82.2803 207.968 80.6269 209.261 79.3355C210.553 78.044 212.208 77.1758 214.005 76.8451C216.186 76.4516 218.435 76.8715 220.328 78.0255C222.22 79.1792 223.623 80.9871 224.271 83.1061Z" fill="#9EDEFF"/>
<path d="M190.912 112.089C192.393 110.406 194.278 108.723 195.187 110.978C195.187 110.978 164.589 145.178 164.521 145.245C162.031 143.529 161.054 147.029 190.912 112.089Z" fill="#9EDEFF"/>
<path d="M211.21 141.845C211.816 143.292 211.547 142.753 190.34 163.758C189.263 164.869 189.768 164.835 188.59 147.971C188.59 146.389 202.054 135.853 206.397 130.669C210.739 125.485 209.594 126.36 211.21 141.845Z" fill="#9EDEFF"/>
<path d="M174.317 98.4218C176.909 98.0852 169.571 104.043 164.219 112.122C163.007 113.872 158.429 119.999 156.645 120.234C156.645 120.234 139.815 120.739 139.815 120.638C139.343 119.999 148.331 111.415 156.645 101.889C157.689 100.307 157.689 100.576 174.317 98.4218Z" fill="#9EDEFF"/>
<path d="M256.149 49.5801C255.818 54.3432 254.774 59.0294 253.052 63.4822C244.939 83.275 245.646 81.491 243.425 77.5189C233.124 59.1736 218.852 57.3222 221.545 55.6728C228.372 50.6458 236.044 46.8836 244.199 44.5647C256.956 41.1986 255.543 44.5647 256.149 49.5801Z" fill="#FF8E92"/>
<path d="M460.37 296.047C457.778 287.194 464.174 264.877 466.092 259.929C468.696 251.008 469.45 241.65 468.314 232.428C466.968 221.892 459.562 204.051 455.657 195.4C451.753 186.749 434.788 170.727 429.402 166.553C424.016 162.379 398.198 151.54 389.008 147.5C379.819 143.461 363.291 142.552 363.291 142.552C360.825 139.466 357.384 137.309 353.529 136.435C349.678 135.56 345.641 136.02 342.085 137.739C331.986 142.216 330.303 152.987 329.428 153.223C308.558 152.987 305.63 169.818 305.63 169.818C297.887 177.661 300.042 182.609 303.273 187.759C306.505 192.909 316.973 193.044 316.973 193.044C316.973 193.044 380.627 179.209 400.049 209.504C419.472 239.799 411.831 289.214 411.831 289.214L412.369 338.292C415.452 341.22 419.306 343.206 423.48 344.025C427.651 344.842 431.971 344.452 435.932 342.903C423.848 333.68 426.17 328.429 426.17 328.429C444.482 339.739 452.561 328.429 452.561 328.429C449.45 327.82 446.532 326.46 444.07 324.465C441.604 322.468 439.666 319.902 438.423 316.984C443.817 318.62 449.388 319.601 455.018 319.913C470.064 321.36 473.431 313.181 473.431 313.181C473.431 313.181 462.928 304.9 460.37 296.047Z" fill="#FFB564"/>
<path d="M331.448 320.585C330.509 319.536 329.987 318.176 329.987 316.765C329.987 315.354 330.509 313.993 331.448 312.944C310.747 300.187 315.19 289.65 310.747 291.771C305.984 293.874 300.895 295.149 295.7 295.541C294.354 295.945 299.436 304.63 310.646 308.366C320.138 311.53 300.547 320.585 297.551 320.821C292.671 321.191 313.271 333.545 324.952 325.668C325.227 325.447 325.566 325.315 325.917 325.295C326.27 325.275 326.621 325.365 326.918 325.556C327.215 325.747 327.445 326.024 327.577 326.353C327.709 326.681 327.732 327.043 327.645 327.385C326.699 332.089 325.005 336.611 322.629 340.782C328.452 341.825 335.117 337.988 339.965 334.689C341.244 333.848 340.772 332.367 341.277 331.323C341.479 330.852 337.238 327.721 331.448 320.585Z" fill="#FFB564"/>
<path d="M278.431 362.058C284.591 374.849 284.86 374.21 283.345 374.748L214.913 397.335C214.105 397.335 215.215 399.253 200.001 369.16C199.226 367.646 195.153 369.699 243.188 353.609C251.536 350.815 259.48 348.021 268.4 345.093C270.689 344.352 268.77 342.063 278.431 362.058ZM269.242 372.998C267.794 370.507 266.65 372.224 264.866 372.291C264.428 372.291 220.837 385.755 217.74 387.236C216.225 387.876 214.845 389.896 216.697 390.367C217.403 390.535 266.65 375.994 269.242 372.998ZM258.672 358.793C259.749 358.254 260.49 356.369 258.201 355.898C257.797 355.898 255.205 356.672 251.469 357.615C238.172 360.981 236.321 363.472 232.888 363.404C228.916 363.404 229.084 365.02 223.16 366.333C209.695 369.329 211.883 370.608 208.281 370.776C207.844 370.776 207.137 371.82 207.002 372.224C206.699 373.435 210.368 374.142 212.119 373.166C215.862 371.155 219.95 369.864 224.169 369.362C229.723 368.386 229.522 366.602 232.787 366.77C239.014 365.929 241.37 363.404 247.025 361.991C252.68 360.577 254.363 360.981 258.672 358.793ZM249.819 371.079C250.382 371.116 250.941 370.95 251.392 370.611C251.843 370.268 252.157 369.78 252.276 369.228C252.276 365.357 238.812 371.517 232.45 372.594C226.66 373.57 213.499 377.407 211.58 379.494C210.234 380.975 210.974 381.817 212.792 381.918C219.524 379.629 218.615 379.326 221.039 378.552C235.042 374.613 225.415 377.845 240.259 373.57C246.992 371.752 247.429 371.079 249.819 371.079Z" fill="#FFF5DB"/>
<path d="M225.011 452.909C226.021 454.962 222.318 456.107 220.164 456.511C218.885 455.669 221.712 460.348 190.879 398.243C171.153 358.994 171.153 360.576 173.173 360.576C183.675 360.61 167.417 337.417 225.011 452.909Z" fill="#79E1CF"/>
<path d="M180.646 385.047C218.144 461.122 217.437 457.621 215.822 458.193C195.625 465.127 205.723 478.39 203.636 482.934C202.526 481.352 132.948 338.797 132.477 337.619C133.015 337.417 131.197 336.508 160.685 354.113C170.143 359.768 164.657 352.564 180.646 385.047Z" fill="#79E1CF"/>
<path d="M284.254 347.751C272.777 323.953 273.551 325.366 272.609 325.703C262.51 329.305 209.662 346.842 200.742 349.771C178.761 357.042 180.141 355.628 181.488 358.253C232.989 458.934 225.247 453.245 231.138 451.663C238.039 451.495 233.427 462.973 233.663 463.579C233.898 464.185 235.581 468.393 236.524 468.056C238.557 467.173 240.636 466.396 242.751 465.734C247.509 465.03 252.144 463.658 256.519 461.661C265.944 456.847 266.078 471.961 254.162 477.784C250.939 479.745 247.477 481.282 243.862 482.362C243.256 482.362 243.121 482.834 243.391 483.372C245.814 488.489 245.208 488.085 246.757 488.085C264.934 488.085 262.78 485.156 275.369 482.497C279.072 481.689 280.619 486.233 279.173 489.229C278.836 489.902 279.408 489.835 280.114 489.633C280.114 489.633 340.704 471.692 343.329 470.85C345.955 470.009 344.71 473.038 284.254 347.751ZM285.6 377.407C285.062 377.609 222.453 398.378 214.913 400.599C212.12 400.296 212.658 401.811 197.073 369.395C194.986 365.087 192.226 367.106 268.94 341.591C271.969 340.581 271.834 341.591 276.042 350.208C287.418 373.569 289.909 375.926 285.6 377.407Z" fill="#79E1CF"/>
<path d="M467.102 544.231C470.468 549.246 471.242 541.369 443.27 580.854C440.237 584.958 436.955 588.871 433.441 592.568C428.694 598.055 424.891 604.181 417.384 609.937C399.813 623.402 386.652 620.036 371.336 602.094C369.016 598.153 367.366 593.853 366.455 589.37C364.267 580.517 360.362 578.06 357.636 568.029C350.499 541.807 358.275 415.106 358.982 414.467C361.877 411.807 357.366 413.12 350.87 404.638C345.585 397.905 348.042 390.702 337.405 373.4C337.192 372.932 336.875 372.519 336.48 372.191C336.081 371.866 335.616 371.633 335.116 371.515C333.063 371.178 334.746 373.838 335.688 375.925C337.102 378.988 334.207 377.035 333.669 377.002C332.289 376.833 331.346 378.416 336.059 381.176C336.631 381.512 338.179 381.546 338.583 382.085C338.979 382.836 339.262 383.641 339.425 384.475C339.425 384.946 339.425 385.08 338.987 385.114C335.285 385.552 333.669 386.326 330.606 383.734C328.855 382.253 325.725 378.887 325.792 376.598C325.96 369.866 324.816 366.499 330.606 363.133C332.861 361.888 333.265 359.767 333.4 357.276C333.635 352.698 338.247 355.189 340.132 349.231C342.825 340.749 355.145 348.221 353.361 343.475C347.907 329.169 330.808 319.912 333.164 315.806C335.386 312.204 343.498 318.903 345.585 321.326C352.115 328.698 364.099 338.729 365.176 345.731C365.849 349.938 368.777 351.386 371.706 361.215C376.991 378.853 382.982 386.36 383.689 405.849C384.8 436.144 416.071 552.41 416.105 552.511C416.98 554.329 419.067 553.555 418.966 551.67C417.754 529.083 405.165 504.174 408.262 504.005C413.367 503.652 418.475 504.651 423.073 506.9C426.17 509.223 445.289 526.222 446.972 527.804C454.311 534.334 462.086 536.556 467.102 544.231Z" fill="#FFC6A6"/>
<path d="M428.996 258.683C443.201 246.666 459.998 256.428 445.826 279.115C442.999 283.592 440.171 287.463 427.818 292.58C411.761 299.312 409.843 258.212 409.54 332.973C409.54 354.18 411.829 360.542 441.619 374.982C442.797 375.555 432.463 383.263 432.396 383.297C414.454 396.155 424.99 390.029 405.13 398.007C401.764 399.286 387.862 405.042 387.626 402.921C384.933 380.402 379.548 375.252 375.845 362.057C372.479 350.41 368.709 347.448 368.372 343.543C367.901 337.82 354.908 326.712 353.325 324.693C352.753 324.019 352.821 323.75 353.662 323.447C391.598 311.093 385.842 301.702 382.005 303.957C374.195 308.502 339.221 321.024 322.929 302.342C305.055 281.808 304.651 245.353 312.057 247.642C315.117 248.319 318.307 248.143 321.274 247.134C324.239 246.125 326.873 244.322 328.887 241.92C330.84 239.967 328.887 247.407 338.313 249.123C340.265 249.493 341.005 247.104 339.827 246.531C336.966 245.084 334.273 244.411 332.725 239.597C331.513 235.861 343.16 238.857 342.823 230.105C342.823 227.782 340.568 227.715 340.063 229.802C339.154 233.403 340.063 232.865 334.677 233.875C334.206 233.875 334.071 233.875 334.24 233.302C337.202 223.978 336.259 221.319 339.289 219.064C340.602 218.297 342.097 217.896 343.614 217.904C345.135 217.913 346.624 218.329 347.928 219.11C349.233 219.891 350.302 221.008 351.028 222.344C351.752 223.68 352.105 225.186 352.046 226.705C352.484 237.712 363.155 253.836 375.609 253.365C393.248 252.658 398.33 234.481 401.528 232.495C403.649 231.148 405.871 231.99 414.824 237.476C417.45 239.059 409.809 255.014 422.264 260.467C423.576 261.039 420.715 262.79 423.913 263.833C424.283 264.237 426.101 261.107 428.996 258.683ZM445.12 269.253C445.585 268.312 445.779 267.26 445.678 266.215C445.577 265.171 445.187 264.175 444.55 263.341C443.911 262.507 443.052 261.869 442.07 261.498C441.089 261.127 440.023 261.038 438.993 261.241C433.54 262.419 427.582 269.354 430.477 274.975C431.453 276.894 430.477 280.866 428.457 281.337C424.452 282.212 424.182 280.327 423.206 282.145C422.23 283.963 424.384 285.511 426.572 285.511C433.506 285.511 435.829 277.567 433.607 273.292C433.324 272.826 433.156 272.297 433.119 271.752C433.086 271.206 433.184 270.66 433.405 270.161C434.819 266.795 441.854 260.433 442.528 269.455C442.696 270.397 444.413 270.734 445.12 269.253ZM338.885 273.056C338.885 271.845 338.144 268.31 335.317 268.243C331.951 268.243 331.446 273.258 333.869 275.716C335.317 277.23 338.077 277.567 338.885 273.056Z" fill="#FFC6A6"/>
<path d="M284.49 523.935C294.319 530.667 292.805 524.238 288.058 556.149C285.758 569.916 282.532 583.512 278.397 596.845C277.455 599.605 278.869 588.935 278.397 577.624C277.926 562.275 262.105 536.625 260.422 537.231C257.056 538.342 263.788 542.28 272.002 565.035C277.623 580.99 274.661 602.938 270.723 608.795C265.606 616.335 261.163 619.533 248.271 617.58C242.487 616.708 237.092 614.141 232.767 610.206C228.441 606.27 225.379 601.139 223.967 595.465C222.15 587.992 219.187 579.375 220.601 570.32C227.333 521.848 223.294 544.3 231.709 555.879H233.224C232.753 552.21 232.416 552.513 227.906 537.702C226.492 532.99 226.458 532.316 224.977 531.374C218.615 527.402 219.793 526.762 218.548 520.03C217.774 515.957 212.758 517.034 213.398 511.312C213.572 509.699 213.334 508.066 212.703 506.571C212.073 505.073 211.073 503.763 209.796 502.762C207.473 500.574 208.012 494.111 212.051 489.903C219.255 482.431 220.063 479.098 227.064 473.914C228.175 473.073 228.444 473.376 238.812 470.952C241.067 470.413 239.687 469.875 244.433 469.033C257.123 466.744 260.321 462.301 260.187 465.129C259.896 467.406 258.977 469.555 257.532 471.339C256.087 473.123 254.174 474.47 252.007 475.227C249.278 476.815 246.39 478.113 243.39 479.098C223.193 483.676 224.27 497.208 227.569 493.337C231.878 488.288 231.238 487.244 232.854 490.206C234.066 492.428 233.46 491.418 229.488 494.986C226.122 498.016 214.879 507.104 220.332 506.296C221.106 506.296 221.544 505.791 228.68 499.8C233.763 495.491 235.816 491.62 252.243 491.452C261.701 491.452 269.073 487.109 275.502 485.864C277.96 485.359 277.32 493.236 260.086 497.881C256.325 499.387 252.423 500.515 248.439 501.247C245.288 501.404 242.249 502.467 239.687 504.31C237.331 506.532 235.58 507.676 236.792 508.922C237.23 509.393 237.634 509.763 238.273 509.09C242.346 504.849 246.554 505.051 255.104 503.334C257.662 502.829 257.123 501.55 261.197 501.146C265.363 500.431 269.487 499.486 273.55 498.319C276.916 498.319 274.324 505.455 256.72 512.254C248.203 515.62 244.198 516.529 241.202 521.006C240.394 522.218 239.721 524.036 241.202 524.709C243.659 525.82 242.178 520.67 250.963 517.472C252.478 516.933 252.849 516.799 253.387 523.531C254.532 538.14 249.146 544.535 248.708 550.46C248.708 551.268 249.651 552.311 250.661 551.066C252.189 547.77 253.549 544.401 254.734 540.967C262.274 518.414 244.635 511.076 268.198 518.313C278.869 521.612 280.35 521.107 284.49 523.935Z" fill="#FFC6A6"/>
<path d="M229.993 455.569C234.571 454.525 230.767 464.422 222.385 469.033C215.653 472.837 214.98 473.207 214.037 474.352C213.095 475.496 214.037 476.944 214.912 476.641C220.433 475.025 229.589 465.162 210.806 486.739C206.362 491.855 207.036 492.226 206.43 487.715C206.47 486.001 206.628 484.293 206.901 482.599C207.743 478.593 203.333 469.134 208.046 466.138C214.144 462.43 220.621 459.384 227.367 457.05C228.178 456.449 229.06 455.953 229.993 455.569Z" fill="#FFC6A6"/>
<path d="M313.605 206.139C313.605 205.668 316.298 192.675 319.597 187.929C322.896 183.182 334.206 171.098 334.206 171.098C334.206 171.098 342.621 175.474 343.396 167.732C343.396 167.732 346.56 170.728 350.128 165.174C353.696 159.62 363.02 160.192 366.386 161.673C369.752 163.154 379.009 164.837 384.126 173.421C389.242 182.004 406.78 211.929 409.91 216.238C413.041 220.546 422.971 233.068 415.599 235.189L402.134 227.514C402.134 227.514 397.456 213.814 385.708 211.862C373.96 209.909 359.991 208.731 354.268 218.594C354.268 218.594 342.992 211.862 335.149 219.032C335.149 219.032 333.365 208.496 323.569 206.846C313.774 205.197 313.605 206.139 313.605 206.139Z" fill="#FFC6A6"/>
<path d="M88.1797 270.702L86.5976 261.176L94.1714 267.571L103.933 262.993L100.634 273.866L107.569 283.964L95.9891 281.978L91.4112 292.211L88.4827 279.925L78.418 275.145L88.1797 270.702Z" fill="#FFEAB6"/>
<path d="M573 267.839C557.28 280.361 555.597 304.362 547.687 298.606C538.632 291.873 532.842 284.838 532.573 274.74C532.573 271.946 531.058 269.219 528.365 270.229C526.177 271.183 523.928 271.993 521.633 272.653C513.925 274.672 514.228 267.671 510.66 270.936C509.223 271.93 507.88 273.057 506.654 274.302C505.543 275.312 506.082 274.74 503.523 272.821C500.965 270.902 497.262 273.528 497.767 275.009C498.014 275.369 498.373 275.635 498.788 275.764C499.204 275.892 499.652 275.875 500.056 275.716C502.042 274.841 502.345 276.726 504.365 278.342C507.731 281.068 510.39 272.181 513.285 274.235C518.099 277.601 520.287 276.456 527.625 273.966C532.169 272.451 523.451 282.515 541.662 297.966C551.76 306.617 553.477 303.891 561.387 288.07C564.282 282.28 569.971 272.855 575.121 269.691C577.241 268.378 579.732 267.705 584.916 271.374C597.068 279.991 591.648 282.179 590.066 285.915C589.797 286.588 591.245 287.8 591.884 286.925C595.89 281.438 594.779 283.155 595.621 280.496C594.173 272.148 580.54 261.848 573 267.839Z" fill="#000001"/>
<path d="M567.95 224.921C567.68 223.238 567.142 221.555 566.805 219.905C566.766 219.507 566.606 219.129 566.348 218.823C566.09 218.516 565.745 218.295 565.358 218.189C564.045 217.785 563.877 218.525 559.366 223.877C555.36 228.623 557.75 227.816 547.921 225.392C547.38 225.488 546.867 225.704 546.418 226.025C545.969 226.345 545.596 226.761 545.329 227.243C544.656 228.219 544.723 228.59 547.719 233.437C550.278 237.577 551.085 236.567 549.874 238.351C543.512 247.878 540.65 251.008 552.365 246.733C559.097 244.309 558.828 243.939 559.804 244.915C564.348 249.46 570.609 257.134 570.979 250.705C571.139 248.183 570.749 245.656 569.835 243.3C569.363 240.876 578.62 239.631 579.159 236.163C579.204 236.013 579.218 235.855 579.201 235.699C579.181 235.543 579.134 235.393 579.052 235.257C578.974 235.121 578.87 235.003 578.741 234.91C578.615 234.817 578.472 234.751 578.317 234.716C565.492 230.172 569.464 234.615 567.95 224.921ZM568.118 239.967C564.752 242.458 567.916 244.545 567.647 248.046C565.021 246.935 562.059 241.314 558.154 241.314C551.119 243.67 550.681 244.68 549.436 244.68C549.84 242.155 555.764 237.039 552.398 234.312C551.085 233.303 547.82 228.489 549.47 228.859C556 230.374 555.966 230.677 557.212 229.802C563.776 225.291 563.944 218.357 565.156 227.849C566.199 236.399 564.079 232.898 573.537 236.332C575.086 236.971 570.239 238.419 568.118 239.967Z" fill="#000001"/>
<path d="M525.942 170.189C526.211 183.653 534.66 190.385 520.522 188.568C498.844 185.74 494.502 180.523 496.555 196.276C496.825 198.397 496.926 197.723 486.457 201.965C481.206 204.119 483.596 206.778 486.457 205.667C496.017 201.763 500.225 201.19 499.922 197.017C499.248 189.645 498.306 188.332 501.1 188.803C519.984 191.833 523.181 192.54 526.581 192.169C539.844 190.756 522.946 169.65 532.001 165.24C538.363 162.076 540.483 167.125 571.014 179.277C572.697 179.95 574.38 180.624 574.919 179.041C575.457 177.459 573.909 177.358 573.067 177.022C542.772 164.601 545.869 163.995 539.406 161.874C537.984 161.209 536.419 160.908 534.851 160.998C533.283 161.089 531.762 161.568 530.427 162.393C529.092 163.218 527.981 164.363 527.198 165.724C526.416 167.084 525.984 168.619 525.942 170.189Z" fill="#000001"/>
<path d="M539.002 128.953C536.477 133.094 530.62 142.115 536.04 140.768C538.06 140.297 541.931 139.557 542.772 139.22C547.922 137.47 548.091 136.763 548.797 137.503C555.53 144.236 560.343 151.607 560.007 139.287C559.805 133.498 558.525 132.555 560.175 131.916C562.363 130.973 566.705 128.549 567.917 128.246C572.057 127.001 572.259 124.308 570.475 123.5C568.691 122.692 563.743 121.75 560.68 120.437C555.799 118.249 557.886 121.245 554.755 108.858C554.683 108.489 554.495 108.153 554.217 107.898C553.942 107.643 553.591 107.481 553.218 107.437C552.845 107.392 552.467 107.466 552.138 107.649C551.81 107.831 551.549 108.113 551.389 108.454C550.985 108.992 549.572 111.012 545.263 117.34C544.253 118.855 534.592 113.772 533.01 115.657C529.038 120.269 540.315 126.799 539.002 128.953ZM543.041 120.403C546.407 121.38 545.802 120.908 551.928 112.661C553.88 110.002 552.635 122.019 557.179 122.423C558.727 122.423 560.949 124.308 564.551 125.116C564.84 125.221 565.112 125.368 565.359 125.554C565.19 125.789 565.056 126.092 564.82 126.193C556.338 130.569 555.765 130.031 556.27 132.925C557.549 140.903 557.246 139.658 557.044 141.038C548.057 132.892 551.625 133.935 550.312 133.7C547.821 133.329 543.176 136.123 538.699 137.066C537.151 137.066 537.757 136.729 541.628 130.333C545.802 123.433 524.999 115.253 543.041 120.403Z" fill="#000001"/>
<path d="M459.428 136.662C459.277 137.976 459.403 139.308 459.798 140.57C460.191 141.833 460.847 143 461.717 143.995C462.589 144.99 463.658 145.792 464.859 146.349C466.059 146.907 467.361 147.207 468.685 147.232C473.599 147.669 475.585 143.462 477.437 143.865C481.577 144.673 484.876 140.095 485.011 136.83C485.011 135.114 486.29 133.969 486.963 132.32C487.636 130.67 486.761 129.627 487.636 129.358C488.924 128.472 489.962 127.269 490.652 125.867C491.342 124.464 491.659 122.907 491.574 121.346C491.574 120.909 492.719 119.36 491.574 117.98C491.339 117.677 492.483 115.859 492.753 115.59C493.022 115.321 525.067 117.879 530.689 89.6373C538.902 48.3687 472.623 31.6727 460.27 71.3256C453.537 92.6668 471.041 103.977 469.998 106.165C467.271 111.786 465.521 109.531 464.511 111.988C461.818 118.216 464.511 117.441 463.063 118.216C458.216 120.707 460.909 123.77 459.226 124.948C457.913 125.913 457.021 127.347 456.741 128.953C456.457 130.558 456.805 132.21 457.711 133.565C459.024 135.114 459.697 135.45 459.428 136.662ZM468.921 143.765C465.016 142.822 464.545 142.755 462.188 137.975C461.885 137.369 462.626 137.47 463.265 137.739C472.556 141.577 475.148 142.182 468.921 143.765ZM467.372 97.312C451.181 71.6286 474.104 50.9942 491.844 51.9704C533.55 51.7348 542.538 106.603 499.182 111.551C493.527 112.224 492.45 110.608 490.699 112.864C487.535 117.34 489.588 119.36 486.997 118.687C481.703 117.335 476.66 115.154 472.051 112.224C467.776 109.632 475.417 108.858 473.195 104.044C470.974 99.2307 471.007 102.9 467.372 97.312ZM467.54 112.662C485.381 126.126 492.45 119.192 487.064 125.453C486.054 126.631 482.149 124.645 480.668 124.106C473.599 121.447 461.582 117.61 467.675 112.662H467.54ZM463.434 121.346C463.972 120.942 463.703 119.798 464.477 119.865C465.824 119.865 464.04 121.279 472.96 124.847C481.88 128.415 482.654 128.819 484.405 128.987C486.155 129.156 484.203 132.858 480.837 132.791C475.383 130.906 459.091 124.914 463.568 121.346H463.434ZM460.068 128.078C461.549 125.789 460.337 128.415 468.012 131.714C476.326 135.316 479.322 136.662 481.476 136.393C482.048 136.393 482.015 136.797 481.779 137.1C480.399 138.951 478.817 141.678 476.225 140.028C469.661 135.45 456.668 133.565 460.27 127.944L460.068 128.078Z" fill="#000001"/>
<path d="M525.974 338.629C523.348 336.946 524.358 336.744 524.93 334.253C527.253 324.154 527.152 324.861 527.017 324.154C527 323.871 526.905 323.596 526.742 323.36C526.58 323.125 526.355 322.942 526.094 322.827C525.833 322.712 525.547 322.67 525.264 322.71C524.981 322.749 524.714 322.864 524.493 323.043C521.126 325.703 517.289 327.285 513.856 329.776C512.274 330.853 506.955 325.467 505.743 325.938C503.959 326.679 502.646 327.554 503.219 329.742C505.609 338.393 504.868 337.484 503.623 338.292C499.954 340.648 496.89 341.658 497.126 344.654C497.126 347.078 504.464 346.909 507.224 346.943C509.985 346.977 509.412 348.155 510.355 349.703C514.563 356.637 517.087 360.643 519.174 352.766C520.992 346.236 518.736 346.943 529.912 346.573C534.692 346.202 531.09 341.894 525.974 338.629ZM523.584 343.509C519.645 344.014 517.996 344.115 517.558 346.505C517.199 348.452 516.647 350.357 515.909 352.194C515.735 352.065 515.578 351.919 515.438 351.756C508.705 341.86 513.923 344.418 501.569 343.408C499.112 343.408 505.878 341.12 507.864 336.676C508.604 335.027 505.137 328.867 507.09 329.944C513.014 333.075 511.095 331.93 511.836 332.368C514.058 333.748 520.655 328.328 523.18 327.588C524.089 333.142 517.693 336.508 523.718 340.749C527.96 343.678 527.387 343.038 523.584 343.509Z" fill="#000001"/>
<path d="M488.443 384.173C478.883 379.124 471.175 382.894 459.394 376.229C456.011 373.859 451.896 372.762 447.78 373.132C444.919 373.873 420.077 363.034 414.725 351.252C413.592 348.181 413 344.933 412.975 341.659C412.739 339.101 425.328 350.074 437.514 344.083C437.831 343.973 438.108 343.774 438.313 343.51C438.521 343.247 438.647 342.93 438.678 342.599C438.709 342.265 438.647 341.928 438.493 341.631C438.341 341.334 438.106 341.087 437.817 340.918C433.404 339.067 429.685 335.875 427.18 331.796C426.776 331.123 426.305 329.777 427.853 330.82C441.553 340.144 459.528 330.18 454.041 327.454C449.163 326.217 444.832 323.401 441.721 319.443C441.048 318.601 441.721 318.736 442.125 318.971C452.224 323.482 466.429 322.842 474.44 315.134C478.614 311.095 465.217 309.378 462.288 293.624C459.36 277.871 469.021 267.537 470.704 240.642C471.579 226.639 461.144 200.686 454.546 190.991C436.605 164.668 410.787 151.81 378.573 142.654C370.949 140.899 362.999 141.119 355.481 143.294C354.135 143.832 354.438 146.054 356.054 145.818C367.681 143.251 379.835 144.748 390.489 150.059C403.617 156.253 429.57 162.11 449.262 189.813C492.483 250.403 439.163 280.699 465.856 308.368C471.478 314.191 472.286 313.249 469.627 314.831C464.858 317.499 459.438 318.772 453.982 318.511C448.524 318.25 443.25 316.461 438.759 313.35C436.672 312.003 434.518 313.35 435.629 315.874C440.308 327.185 451.685 328.666 448.757 329.676C433.272 334.893 427.011 325.401 424.823 324.189C420.178 321.698 419.337 331.796 432.128 341.524C434.787 343.544 412.436 341.827 412.638 334.523C414.489 272.99 408.565 299.986 426.439 297.495C441.284 295.375 458.417 274.337 454.311 259.492C451.55 249.629 442.428 250.774 440.139 249.124C417.957 233.203 406.175 228.288 399.746 218.19C392.138 206.274 363.762 202.167 353.765 216.204C353.394 216.742 353.091 216.877 352.587 216.204C351.664 215.095 350.519 214.187 349.232 213.536C347.941 212.886 346.533 212.506 345.091 212.421C343.65 212.336 342.208 212.547 340.85 213.041C339.495 213.535 338.252 214.302 337.203 215.295C336.766 215.766 336.564 215.766 336.396 215.093C334.645 207.889 324.85 204.49 316.805 204.052C315.559 204.052 315.324 204.49 318.555 196.108C319.161 194.56 322.662 194.223 327.846 197.926C332.524 200.821 329.259 189.982 321.82 190.15C318.454 190.15 331.649 175.709 333.703 173.319C334.78 172.108 335.083 174.195 337.742 174.43C338.853 174.43 339.56 172.68 338.213 171.636C320.945 158.172 339.257 130.502 355.549 139.422C358.915 141.341 360.564 137.773 357.299 136.056C345.787 130.435 332.76 138.11 329.125 150.699C328.653 152.247 328.552 150.463 320.709 152.281C317.197 153.111 313.966 154.856 311.349 157.339C308.729 159.822 306.813 162.955 305.797 166.419C305.343 168.008 304.457 169.441 303.239 170.559C295.497 178.907 299.2 189.544 308.019 192.203C308.659 192.405 311.183 192.708 311.385 191.53C311.924 189.578 310.342 189.544 309.096 189.174C297.315 185.639 304.215 169.785 305.528 175.406C306.841 181.028 314.448 188.097 316.098 185.202C317.747 182.307 304.114 178.806 309.164 166.183C313.136 156.085 328.182 152.719 328.149 156.657C327.947 169.112 333.467 170.122 332.121 171.535C325.388 178.57 322.022 181.061 317.882 189.813C317.584 190.568 317.021 191.19 316.3 191.564C311.217 193.92 309.332 201.662 311.284 200.518C315.458 197.724 314.112 197.892 313.068 203.109C312.563 205.567 309.197 203.311 300.715 207.889C285.601 216.237 292.939 236.064 305.797 244.849C310.678 248.216 296.17 252.894 310.577 287.464C310.645 287.576 310.684 287.702 310.692 287.832C310.701 287.962 310.678 288.092 310.625 288.211C310.572 288.33 310.49 288.434 310.389 288.516C310.288 288.597 310.168 288.652 310.039 288.676C304.746 291.059 299.015 292.32 293.208 292.379C291.189 292.177 291.256 294.399 291.862 296.014C296.877 309.479 310.779 310.724 308.154 312.273C297.55 318.601 297.786 317.423 294.959 318.096C294.437 318.147 293.957 318.402 293.623 318.806C293.29 319.21 293.13 319.729 293.175 320.25C292.939 322.977 295.06 324.525 298.022 326.646C310.678 335.667 323.133 330.012 323.773 330.618C322.777 334.012 321.169 337.193 319.026 340.01C314.381 345.9 327.61 346.742 338.617 339.808C338.816 339.757 339.024 339.757 339.223 339.808C338.847 342.254 338.306 344.672 337.607 347.045C335.992 352.397 331.919 350.411 330.37 355.965C328.99 361.115 302.869 368.319 299.469 370.473C298.358 371.146 299.166 371.651 289.001 350.882C274.594 321.563 275.537 321.597 271.834 322.842C263.217 325.603 266.212 327.05 260.827 316.11C258.066 310.489 195.086 326.915 175.765 349.906C171.692 354.955 174.149 356.201 175.529 354.955C176.303 354.282 181.689 343.645 211.984 330.551C226.356 324.323 241.526 320.13 257.057 318.096C258.807 317.894 258.1 317.389 261.567 325.064C262.442 327.016 178.289 352.969 176.202 355.628C174.115 358.288 169.47 357.446 170.884 356.369C171.197 356.156 171.416 355.833 171.497 355.463C171.579 355.093 171.516 354.708 171.322 354.383C164.589 338.798 156.915 337.552 157.857 334.186C157.857 333.547 154.895 326.579 155.433 325.569C155.972 324.559 171.86 338.697 171.322 348.021C171.322 350.377 175.092 351.387 174.486 347.078C172.769 334.455 155.972 317.288 151.529 322.741C150.755 323.65 154.02 330.281 154.087 332.268C151.933 331.628 140.118 322.169 136.381 326.848C135.54 327.858 135.944 327.993 141.195 337.687C142.508 340.144 138.738 337.384 135.001 335.162C123.792 328.43 128.269 334.927 134.227 347.55C200.573 484.18 205.858 492.293 205.185 496.063C204.843 498.077 205.026 500.144 205.715 502.066C206.405 503.987 207.579 505.701 209.123 507.036C209.645 507.575 210.021 508.237 210.215 508.964C210.41 509.687 210.416 510.45 210.234 511.177C209.864 519.491 215.822 518.145 215.754 522.79C215.79 525.946 216.989 528.978 219.12 531.306C224.237 535.043 222.049 527.738 217.505 569.478C216.226 581.158 219.861 590.685 221.847 597.922C226.055 613.002 242.044 621.283 253.152 621.485C254.296 621.485 254.768 621.081 253.152 626.096C248.002 642.22 254.532 645.552 246.79 655.449C245.421 657.438 244.628 659.769 244.501 662.181C244.544 662.503 244.697 662.801 244.933 663.022C245.169 663.244 245.475 663.379 245.799 663.404C246.123 663.426 246.445 663.339 246.711 663.151C246.978 662.966 247.172 662.694 247.261 662.383C248.877 656.358 253.993 653.732 254.195 645.317C254.195 643.836 254.397 634.545 254.734 633.131C257.73 620.172 257.09 621.518 258.807 621.249C269.747 619.499 272.07 613.372 278.23 605.024C282.538 599.167 291.693 560.12 294.555 532.619C294.555 531.542 294.555 530.431 295.531 529.69C296.507 528.95 301.354 498.89 301.253 496.029C301.253 494.918 299.301 494.481 298.897 495.491C297.786 498.15 296.103 514.644 293.982 525.584C293.747 526.93 293.208 526.089 288.159 522.521C281.427 517.741 280.451 518.885 272.07 516.495C258.605 512.557 261.971 514.543 269.478 509.763C279.576 503.233 278.903 497.14 277.758 495.693C276.614 494.245 272.978 495.087 277.758 493.707C322.291 480.814 339.358 475.967 345.45 473.51C349.658 471.894 348.816 471.423 347.807 470.346C347.807 470.346 341.411 457.353 300.681 374.445C300.075 373.166 299.705 373.637 307.783 371.079C308.322 371.079 308.49 371.079 308.591 371.651C310.6 380.454 315.307 388.409 322.056 394.406C340.132 409.587 346.763 404.302 348.143 406.625C359.622 426.182 353.765 380.336 351.509 521.544C351.509 575.234 356.256 572.036 362.651 587.756C363.156 588.934 366.017 601.22 368.003 603.408C387.695 626.736 403.449 626.332 420.75 612.228C435.258 600.413 459.596 562.207 461.481 563.655C463.366 565.102 466.462 565.237 469.425 567.256C473.43 569.983 479.691 572.642 484.303 571.296C488.107 570.185 487.097 572.81 506.856 514.745C507.899 511.648 505.947 539.991 499.349 565.809C490.261 601.288 475.787 621.552 479.153 635.084C480.499 640.335 478.177 642.22 479.153 650.837C482.519 675.746 480.869 674.164 483.562 674.4C486.255 674.636 483.259 655.045 483.024 653.9C480.97 643.432 483.63 640.436 482.249 634.646C478.681 619.869 498.306 596.104 507.024 544.198C510.861 521.477 507.933 512.624 515.709 490.643C525.403 463.445 531.664 444.292 527.12 415.613C523.754 394.642 517.257 399.388 488.443 384.173ZM173.173 360.61C183.675 360.61 167.35 337.384 224.91 452.943C225.92 454.996 222.217 456.141 220.063 456.545C218.784 455.703 221.611 460.382 190.778 398.277C171.153 358.994 171.153 360.577 173.173 360.577V360.61ZM139.916 329.339C144.393 328.8 163.478 341.827 168.09 354.82C160.248 350.919 152.719 346.419 145.571 341.356C144.931 338.629 140.488 331.291 139.916 329.305V329.339ZM203.636 482.969C202.525 481.353 132.948 338.831 132.477 337.653C133.015 337.451 131.197 336.542 160.685 354.147C170.143 359.802 164.657 352.633 180.646 385.082C218.144 461.156 217.437 457.655 215.822 458.228C195.659 465.128 205.69 478.357 203.636 482.935V482.969ZM206.43 487.816C206.47 486.102 206.628 484.391 206.901 482.699C207.743 478.694 203.333 469.235 208.046 466.239C214.144 462.531 220.622 459.484 227.367 457.151C228.175 456.528 229.057 456.006 229.993 455.602C234.571 454.592 230.767 464.455 222.386 469.067C215.653 472.87 214.98 473.241 214.038 474.385C213.095 475.53 214.038 476.977 214.913 476.674C220.433 475.058 229.589 465.196 210.806 486.772C206.363 491.923 207.036 492.259 206.43 487.782V487.816ZM232.215 467.619C232.787 469.033 232.585 468.797 227.334 469.841C227.334 469.841 227.334 469.841 227.334 469.572C230.262 467.787 230.7 465.768 231.272 465.902C231.844 466.037 231.743 466.576 232.215 467.72V467.619ZM259.951 497.712C256.191 499.219 252.289 500.346 248.305 501.078C245.153 501.235 242.115 502.299 239.553 504.142C237.197 506.363 235.446 507.508 236.658 508.753C237.096 509.224 237.499 509.595 238.139 508.921C242.212 504.68 246.42 504.882 254.97 503.165C257.528 502.66 256.989 501.381 261.062 500.977C265.229 500.262 269.353 499.317 273.416 498.15C276.782 498.15 274.19 505.286 256.585 512.086C248.035 515.452 244.063 516.361 241.068 520.838C240.26 522.049 239.586 523.867 241.068 524.54C243.525 525.651 242.044 520.501 250.829 517.303C252.344 516.765 252.714 516.63 253.253 523.362C254.397 537.971 249.012 544.367 248.574 550.291C248.574 551.099 249.517 552.142 250.526 550.897C251.536 549.652 254.263 541.674 254.599 540.799C262.139 518.246 244.501 510.907 268.064 518.145C278.869 521.511 280.215 520.939 284.355 523.766C294.184 530.498 292.67 524.069 287.923 555.98C285.623 569.747 282.397 583.344 278.263 596.676C277.321 599.436 278.734 588.766 278.263 577.456C277.792 562.106 261.971 536.456 260.288 537.062C256.922 538.173 263.654 542.111 271.868 564.866C277.489 580.822 274.527 602.769 270.588 608.626C265.472 616.166 261.029 619.364 248.136 617.412C242.353 616.539 236.958 613.975 232.633 610.037C228.307 606.101 225.245 600.971 223.833 595.296C222.015 587.823 219.053 579.206 220.467 570.151C227.199 521.679 223.16 544.131 231.575 555.711H233.09C232.619 552.041 232.282 552.344 227.771 537.534C226.358 532.821 226.324 532.148 224.843 531.205C218.481 527.233 219.659 526.594 218.414 519.861C217.639 515.788 212.624 516.866 213.263 511.143C213.438 509.53 213.199 507.898 212.569 506.402C211.939 504.907 210.939 503.595 209.662 502.593C207.339 500.405 207.878 493.942 211.917 489.735C219.12 482.262 219.928 478.929 226.93 473.746C228.041 472.904 228.31 473.207 238.678 470.783C240.933 470.245 239.553 469.706 244.299 468.865C256.989 466.576 260.187 462.132 260.052 464.96C259.762 467.238 258.843 469.389 257.398 471.17C255.953 472.954 254.04 474.301 251.873 475.058C249.144 476.649 246.256 477.945 243.256 478.929C223.059 483.507 224.136 497.039 227.435 493.168C231.743 488.119 231.104 487.075 232.72 490.038C233.931 492.259 233.325 491.249 229.353 494.817C225.987 497.847 214.744 506.935 220.198 506.128C220.972 506.128 221.409 505.623 228.546 499.631C233.628 495.322 235.682 491.451 252.108 491.283C261.567 491.283 268.939 486.941 275.368 485.695C277.826 485.291 277.186 493.168 259.951 497.813V497.712ZM236.725 490.24C236.288 489.836 236.49 490.475 234.571 486.57C234.133 485.628 234.874 485.359 239.586 483.911C240.192 483.709 240.731 484.82 242.111 487.883C242.414 488.691 241.842 488.893 236.725 490.341V490.24ZM343.161 470.851C340.469 471.692 280.047 489.6 279.946 489.634C279.239 489.836 278.667 489.903 279.004 489.23C280.451 486.133 279.004 481.589 275.2 482.497C262.611 485.157 264.765 488.052 246.588 488.085C245.208 488.085 245.814 488.489 243.222 483.373C242.953 482.834 243.222 482.497 243.693 482.363C247.308 481.283 250.77 479.746 253.993 477.785C265.91 471.961 265.775 456.848 256.35 461.661C251.975 463.658 247.34 465.03 242.582 465.734C240.467 466.396 238.388 467.173 236.355 468.057C235.412 468.393 233.931 464.691 233.494 463.58C233.056 462.469 237.87 451.495 230.969 451.664C225.078 453.246 232.821 458.935 181.319 358.254C179.972 355.628 178.592 357.042 200.573 349.771C209.493 346.843 262.476 329.305 272.44 325.704C273.382 325.367 272.44 323.953 284.086 347.752C344.71 473.039 345.652 470.177 343.161 470.952V470.851ZM417.99 240.844C417.99 239.497 417.317 239.497 433.811 250.201C435.965 251.582 430.95 251.009 425.833 256.934C424.857 258.078 424.823 258.011 423.41 257.338C417.283 254.611 417.115 247.946 417.99 240.945V240.844ZM358.578 216.237C365.311 210.717 387.19 210.852 395.606 220.378C402.944 228.726 384.767 259.256 366.825 246.701C358.208 240.675 350.197 222.97 358.578 216.237ZM315.088 231.52C315.088 229.836 313.203 208.899 315.93 209.034C321.049 208.852 326.109 210.187 330.471 212.871C337.708 217.617 329.495 250.403 311.856 243.907C309.971 243.166 314.953 238.757 315.088 231.52ZM305.797 210.683C307.548 210.145 309.164 209.741 311.116 209.269C311.722 209.269 312.025 209.269 311.957 209.943C310.207 225.124 315.122 229.433 309.298 241.079C308.625 242.493 308.49 242.56 307.346 241.652C293.242 230.139 289.303 215.833 305.797 210.683ZM312.025 247.711C315.085 248.387 318.275 248.212 321.24 247.203C324.207 246.194 326.841 244.39 328.855 241.988C330.774 240.036 328.855 247.475 338.281 249.192C340.233 249.562 340.973 247.172 339.795 246.6C336.934 245.152 334.241 244.479 332.693 239.666C331.481 235.929 343.128 238.925 342.791 230.173C342.791 227.85 340.536 227.783 340.031 229.87C339.122 233.472 340.031 232.933 334.645 233.943C334.174 233.943 334.039 233.943 334.208 233.371C337.17 224.047 336.227 221.388 339.257 219.132C340.569 218.365 342.065 217.965 343.582 217.973C345.103 217.981 346.592 218.397 347.896 219.178C349.201 219.959 350.27 221.076 350.996 222.412C351.72 223.748 352.073 225.255 352.014 226.773C352.452 237.781 363.123 253.904 375.577 253.433C393.216 252.726 398.298 234.549 401.496 232.563C403.617 231.217 405.839 232.058 414.792 237.545C417.418 239.127 409.777 255.082 422.232 260.535C423.544 261.108 420.683 262.858 423.881 263.902C424.386 263.902 426.204 260.906 429.098 258.482C443.304 246.465 460.1 256.227 445.929 278.914C443.102 283.391 440.274 287.262 427.92 292.379C411.864 299.111 409.945 258.011 409.642 332.772C409.642 353.979 411.931 360.341 441.721 374.782C442.9 375.354 432.566 383.062 432.498 383.096C414.557 395.954 425.093 389.828 405.233 397.806C401.867 399.085 387.964 404.841 387.729 402.72C385.036 380.201 379.65 375.051 375.947 361.856C372.581 350.209 368.811 347.247 368.475 343.342C368.003 337.62 355.01 326.511 353.428 324.492C352.856 323.819 352.923 323.549 353.765 323.246C391.701 310.893 385.945 301.501 382.107 303.756C374.298 308.301 339.324 320.823 323.032 302.141C304.956 282.011 304.552 245.556 311.957 247.845L312.025 247.711ZM322.628 340.784C324.998 336.59 326.681 332.046 327.61 327.319C327.697 326.977 327.672 326.615 327.543 326.287C327.411 325.959 327.181 325.681 326.883 325.49C326.586 325.3 326.235 325.21 325.882 325.229C325.529 325.249 325.192 325.381 324.917 325.603C313.237 333.479 292.636 321.126 297.517 320.755C300.445 320.52 320.103 311.465 310.611 308.301C299.402 304.564 294.319 295.88 295.665 295.476C300.925 295.128 306.084 293.875 310.914 291.773C315.357 289.652 310.914 300.188 331.616 312.946C330.676 313.995 330.154 315.356 330.154 316.767C330.154 318.177 330.676 319.538 331.616 320.587C337.405 327.656 341.714 330.685 341.411 331.359C340.906 332.436 341.411 333.917 340.098 334.725C335.083 338.125 328.418 341.962 322.628 340.784ZM344.777 401.946C329.529 399.556 314.65 384.476 311.587 371.819C311.015 369.429 310.611 369.665 313.169 368.79C320.676 366.131 324.547 363.269 323.604 364.953C321.719 368.319 323.066 372.661 322.83 374.209C321.955 380.033 325.994 384.947 331.818 388.044C332.592 388.448 332.323 388.381 337.473 388.717C340.839 387.909 341.276 387.573 341.68 388.717C342.418 390.398 342.993 392.145 343.397 393.935C344.743 401.374 346.494 402.35 344.743 402.081L344.777 401.946ZM443.303 580.721C440.271 584.825 436.989 588.738 433.474 592.435C428.728 597.922 424.924 604.048 417.418 609.804C399.847 623.269 386.685 619.902 371.369 601.961C369.052 598.017 367.403 593.72 366.489 589.237C364.301 580.384 360.396 577.927 357.669 567.896C350.533 541.674 358.309 414.973 359.016 414.333C361.911 411.674 357.4 412.987 350.903 404.504C345.619 397.772 348.076 390.569 337.439 373.267C337.229 372.798 336.912 372.386 336.513 372.058C336.118 371.732 335.652 371.5 335.15 371.382C333.097 371.045 334.78 373.704 335.722 375.791C337.136 378.855 334.241 376.902 333.703 376.869C332.322 376.7 331.38 378.282 336.093 381.043C336.665 381.379 338.213 381.413 338.617 381.951C339.013 382.703 339.296 383.508 339.459 384.341C339.459 384.813 339.459 384.947 339.021 384.981C335.318 385.419 333.703 386.193 330.639 383.601C328.889 382.12 325.759 378.754 325.826 376.465C325.994 369.732 324.85 366.366 330.639 363C332.895 361.755 333.299 359.634 333.433 357.143C333.669 352.565 338.281 355.056 340.166 349.098C342.858 340.615 355.178 348.088 353.394 343.342C347.941 329.036 330.841 319.779 333.198 315.673C335.419 312.071 343.498 318.769 345.619 321.193C352.149 328.565 364.132 338.596 365.21 345.597C365.883 349.771 368.811 351.252 371.74 361.081C377.025 378.72 383.016 386.226 383.723 405.716C384.834 436.011 416.105 552.277 416.139 552.378C417.014 554.196 419.101 553.455 419 551.537C417.788 528.95 405.199 504.041 408.296 503.872C413.401 503.519 418.512 504.517 423.107 506.767C426.204 509.09 445.323 526.089 447.006 527.671C453.974 534.066 461.75 536.288 466.765 543.963C470.333 549.248 471.276 541.371 443.27 580.855L443.303 580.721ZM342.32 341.255C343.868 333.311 343.7 333.614 344.643 334.523C346.331 336.374 347.706 338.489 348.715 340.784C349.422 342.097 347.268 341.625 347.234 341.491C342.421 342.366 341.849 342.77 342.118 341.39L342.32 341.255ZM486.794 562.14C486.654 562.42 486.46 562.673 486.221 562.88C486.036 562.695 485.868 562.49 485.717 562.274C476.561 548.81 471.949 545.444 469.795 541.606C467.068 536.793 459.192 531.811 454.445 528.916C451.315 526.998 445.222 520.737 440.409 516.933C429.536 508.349 429.267 502.93 413.749 500.809C411.393 500.473 407.791 501.516 407.219 501.045C406.646 500.573 407.219 499.766 409.945 494.514C412.231 489.774 414.972 485.263 418.125 481.05C432.061 461.392 429.233 462.402 433.979 454.289C442.327 439.882 444.515 441.633 457.879 427.36C476.19 407.77 477.099 407.332 478.311 404.235C478.85 402.788 477.571 402.114 476.897 402.821C435.023 447.052 439.029 438.166 430.445 454.188C411.426 489.735 422.535 464.994 406.31 494.245C404.593 497.308 386.113 412.852 387.897 407.197C388.402 405.582 390.287 408.174 404.728 402.047C426.574 392.723 415.062 400.297 433.34 386.832C442.597 380.1 446.804 372.594 456.196 378.215C468.314 385.486 472.69 382.49 484.067 385.856C490.093 387.64 489.487 389.626 514.766 399.826C522.172 402.821 523.215 409.352 524.09 415.781C528.433 449.678 525.403 453.784 486.592 562.274L486.794 562.14Z" fill="#000001"/>
<path d="M478.244 82.7036C478.85 82.7036 479.288 82.7036 479.086 83.7471C477.807 89.2339 485.246 93.8455 483.765 96.5047C481.751 100.353 480.334 104.484 479.557 108.757C479.389 109.767 480.298 109.229 480.668 109.532C482.082 110.743 482.755 104.415 486.39 97.5818C488.847 93.0376 481.711 88.4933 481.88 84.5886C482.082 79.5731 484.034 82.4343 488.612 83.8817C491.17 84.6896 493.122 83.8817 493.829 85.5648C494.287 86.4641 495.05 87.1696 495.984 87.5525C496.918 87.9357 497.956 87.9707 498.912 87.6518C502.009 86.8439 501.201 89.2339 504.837 90.0081C508.472 90.7823 508.438 90.614 508.438 91.9604C508.438 92.4317 508.438 92.9366 507.866 93.0712C506.135 93.6617 504.486 94.4645 502.952 95.4612C501.033 96.37 501.874 94.8216 498.677 96.9086C493.863 100.039 494.671 98.0531 492.651 99.6352C489.285 102.362 481.913 110.137 484.27 111.989C486.626 113.84 486.895 108.993 491.675 104.617C496.455 100.241 495.714 102.362 497.33 101.251C500.696 99.1639 501.167 98.861 501.672 98.8273C504.567 98.5917 506.789 96.1681 508.977 95.9661C511.939 95.6968 511.165 93.1049 511.804 93.3069C512.444 93.5088 512.444 94.1484 512.68 94.7206C514.8 100.005 521.398 87.5508 516.315 85.9014C511.232 84.252 509.886 87.8201 509.078 87.6181C501.268 85.8678 506.116 86.8776 501.605 84.555C499.518 83.4778 497.869 86.0024 496.186 83.6125C493.526 79.7751 495.445 83.6125 482.957 78.6306C482.082 78.294 481.61 77.0822 480.937 76.2743C480.264 75.4664 479.22 75.4664 477.975 75.1298C474.44 74.2883 472.353 81.5928 478.244 82.7036ZM514.868 88.729C515.911 89.0319 515.137 91.4892 514.194 90.9843C510.626 89.1665 513.622 88.325 514.868 88.729ZM477.84 77.7554C478.244 77.7554 478.951 78.9335 479.321 79.5058C477.47 81.0205 476.595 78.2267 477.807 77.7554H477.84Z" fill="#000001"/>
<path d="M501.738 445.335C490.562 451.058 475.65 461.459 441.148 463.58C439.835 463.58 438.522 464.186 438.69 465.532C438.859 466.878 467.471 468.393 502.647 448.095C507.292 445.369 504.801 443.787 501.738 445.335Z" fill="#000001"/>
<path d="M446.402 454.525C464.411 448.904 487.569 430.962 486.088 429.01C483.16 425.274 475.754 440.287 445.426 452.135C444.349 452.539 444.82 454.189 446.402 454.525Z" fill="#000001"/>
<path d="M433.71 225.427C434.282 226.033 447.578 238.084 449.026 234.348C449.564 232.934 448.689 232.53 444.044 229.298C419.841 212.872 409.575 179.615 398.063 172.478C397.288 172.007 396.649 173.858 396.952 174.431C399.597 177.346 401.995 180.476 404.122 183.789C418.226 206.342 414.725 204.86 433.71 225.427Z" fill="#000001"/>
<path d="M435.426 396.155C427.785 400.7 427.616 402.888 423.644 404.604C421.019 405.749 400.081 413.928 401.865 416.992C402.842 418.574 402.673 417.295 425.428 407.163C428.665 405.148 431.748 402.899 434.652 400.43C446.164 392.116 447.779 392.251 447.207 390.332C446.197 387.269 439.936 393.496 435.426 396.155Z" fill="#000001"/>
<path d="M426.675 285.378C433.609 285.378 435.932 277.434 433.71 273.159C433.427 272.692 433.259 272.164 433.222 271.618C433.188 271.073 433.287 270.527 433.508 270.028C434.922 266.662 441.957 260.3 442.63 269.321C442.63 270.398 444.381 270.735 445.121 269.321C445.59 268.381 445.783 267.329 445.682 266.284C445.581 265.239 445.189 264.244 444.552 263.41C443.915 262.576 443.057 261.937 442.075 261.566C441.093 261.195 440.027 261.106 438.995 261.31C433.542 262.488 427.584 269.422 430.479 275.044C431.455 276.962 430.479 280.934 428.459 281.406C424.453 282.281 424.184 280.396 423.208 282.213C422.232 284.031 424.386 285.378 426.675 285.378Z" fill="#000001"/>
<path d="M403.414 132.084C403.616 129.795 402.943 123.365 408.632 121.817C413.21 120.538 415.734 120.975 417.788 117.407C419.538 114.378 417.788 113.435 419.437 110.305C424.958 100.207 422.13 101.755 429.535 98.5234C449.328 89.7379 432.902 78.5287 431.151 84.1838C430.242 86.9103 431.993 88.4587 433.171 85.8332C433.777 84.4531 440.206 89.4349 432.632 93.5752C425.631 97.379 422.231 97.3453 420.346 102.159C418.461 106.972 415.431 110.036 415.532 114.479C415.532 117.643 412.604 117.542 409.204 118.215C406.514 118.952 404.158 120.592 402.534 122.86C400.909 125.128 400.116 127.885 400.284 130.67C400.351 136.729 402.977 137.335 403.414 132.084Z" fill="#000001"/>
<path d="M361.002 159.248C358.825 159.198 356.659 159.61 354.654 160.457C352.645 161.304 350.839 162.567 349.355 164.163C347.369 166.283 349.355 168.202 351.375 166.485C352.881 164.931 354.749 163.779 356.814 163.132C358.875 162.485 361.069 162.365 363.19 162.783C388.368 166.149 390.119 197.218 415.87 227.917C418.933 231.519 421.323 230.206 420.144 228.085C415.393 222.217 410.997 216.069 406.983 209.673C385.743 171.568 383.689 162.614 361.002 159.248Z" fill="#000001"/>
<path d="M363.022 190.485C361.844 191.731 360.969 194.424 362.72 193.851C365.143 192.875 367.432 190.014 373.525 190.081C381.974 190.081 385.037 202.469 385.609 196.174C384.902 186.177 372.65 180.151 363.022 190.485Z" fill="#000001"/>
<path d="M368.844 230.104C370.662 230.104 370.763 228.892 371.234 227.041C370.696 223.473 367.868 223.675 367.195 225.728C366.522 227.782 366.858 230.003 368.844 230.104Z" fill="#000001"/>
<path d="M341.579 163.725C341.579 165.98 341.579 170.087 343.902 169.717C346.965 169.246 341.916 163.523 346.595 156.252C347.114 155.244 347.854 154.365 348.755 153.678C349.658 152.991 350.701 152.514 351.812 152.28C352.202 152.122 352.542 151.864 352.803 151.534C353.061 151.203 353.232 150.811 353.293 150.395C353.125 145.952 341.445 150.833 341.579 163.725Z" fill="#000001"/>
<path d="M319.261 39.0436C320.271 39.3129 321.719 37.8654 323.334 37.5962C325.758 37.1922 332.187 36.9903 333.433 39.4475C337.438 47.1559 323.873 56.783 322.223 67.42C321.18 74.1522 328.249 75.9026 339.054 78.8984C348.378 81.4567 331.009 93.3391 336.327 100.509C337.203 101.653 339.694 103.875 341.713 105.996C346.796 111.314 340.199 118.417 343.531 119.124C346.863 119.83 349.321 108.722 343.531 103.101C337.102 96.6379 336.428 98.8932 343.262 86.9435C345.046 83.813 346.022 78.3262 342.117 76.6431C338.213 74.9601 338.751 76.2055 329.393 72.5701C315.121 67.0834 342.252 50.7913 335.823 38.1011C334.341 34.4657 331.211 34.8696 326.936 34.4657C318.319 34.2637 318.016 38.707 319.261 39.0436Z" fill="#000001"/>
<path d="M338.886 273.058C338.886 271.846 338.145 268.311 335.318 268.244C331.952 268.244 331.447 273.26 333.87 275.717C335.318 277.232 338.078 277.568 338.886 273.058Z" fill="#000001"/>
<path d="M326.599 224.416C326.33 221.05 323.671 221.05 323.233 222.329C321.113 226.132 325.522 229.7 326.599 224.416Z" fill="#000001"/>
<path d="M268.77 341.59C192.056 367.139 194.715 365.153 196.903 369.394C212.488 401.81 211.95 400.295 214.744 400.598C222.418 398.376 285.028 377.607 285.432 377.405C289.741 375.924 287.25 373.568 275.738 350.207C271.698 341.725 271.833 340.58 268.77 341.59ZM283.311 374.746L214.912 397.333C214.104 397.333 215.215 399.252 200 369.158C199.226 367.644 195.153 369.697 243.187 353.607C251.535 350.813 259.479 348.019 268.4 345.091C270.722 344.35 268.871 342.061 278.498 361.921C284.591 374.847 284.86 374.241 283.345 374.746H283.311Z" fill="#000001"/>
<path d="M264.865 372.289C264.428 372.289 220.836 385.754 217.74 387.235C216.225 387.874 214.845 389.894 216.696 390.365C217.302 390.365 266.548 375.992 269.14 372.996C267.794 370.505 266.649 372.222 264.865 372.289Z" fill="#000001"/>
<path d="M224.237 369.361C229.791 368.385 229.589 366.601 232.854 366.769C239.082 365.928 241.438 363.403 247.093 361.989C252.748 360.576 254.364 360.98 258.774 358.623C259.851 358.085 260.591 356.2 258.302 355.729C257.898 355.729 255.306 356.503 251.57 357.445C238.274 360.811 236.423 363.302 232.989 363.235C229.017 363.235 229.185 364.851 223.261 366.163C209.797 369.159 211.984 370.438 208.383 370.607C207.945 370.607 207.238 371.65 207.104 372.054C206.801 373.266 210.47 373.973 212.22 372.997C215.965 371.047 220.04 369.816 224.237 369.361Z" fill="#000001"/>
<path d="M235.613 201.391C240.528 194.861 237.633 195.804 253.824 201.391C254.161 201.547 254.539 201.592 254.903 201.52C255.267 201.447 255.598 201.26 255.849 200.987C256.101 200.713 256.258 200.367 256.299 199.998C256.341 199.629 256.264 199.257 256.079 198.934C254.307 195.089 252.26 191.376 249.953 187.826C248.573 186.076 255.675 178.502 255.81 174.362C256.012 168.269 243.524 178.401 240.797 174.833C238.609 171.972 235.277 168.807 233.089 165.34C232.112 163.758 230.227 163.186 229.924 165.071C227.333 182.272 231.507 178.031 221.913 181.733C216.561 183.82 216.393 183.787 216.09 185.503C215.147 190.923 227.669 191.697 227.703 194.154C227.905 205.229 227.467 204.556 227.703 206.878C227.75 207.19 227.881 207.483 228.081 207.726C228.281 207.97 228.543 208.155 228.84 208.261C229.136 208.368 229.456 208.393 229.765 208.333C230.075 208.274 230.362 208.131 230.598 207.922C232.449 205.889 234.127 203.705 235.613 201.391ZM228.039 190.115C216.527 185.806 216.527 186.749 229.184 182.171C231.944 181.161 230.631 175.136 232.55 169.952C244.567 181.195 234.435 180.252 252.006 176.213C249.414 183.147 244.028 185.133 247.125 188.735C248.856 191.158 250.355 193.739 251.602 196.443C252.444 197.857 248.236 196.443 242.278 194.222C238.912 192.976 239.686 190.452 231.742 201.56C228.645 205.902 233.122 192 228.039 190.115Z" fill="#000001"/>
<path d="M170.817 142.553C172.432 140.802 172.466 140.802 173.947 142.553C175.455 144.345 176.598 146.415 177.313 148.645C177.919 150.8 175.63 149.655 174.923 149.689C171.557 149.689 172.937 152.213 173.779 152.617C182.059 156.623 185.628 147.097 185.863 150.227C186.233 154.469 186.2 159.08 186.402 164.634C186.402 167.159 188.455 169.078 190.172 167.529C191.889 165.981 196.466 161.336 202.963 155.007C213.6 144.606 214.038 144.909 213.903 142.856C212.355 120.303 210.537 126.025 217.942 117.98C226.896 108.319 244.871 88.6611 250.695 76.8797C259.682 59.0729 263.25 40.3236 254.869 39.3811C243.659 38.1357 224.17 47.931 214.475 56.4473C207.523 62.4009 201.03 68.8711 195.053 75.8025C174.856 97.9852 180.578 94.3835 171.49 95.5953C153.212 97.9516 159.607 94.0132 136.886 118.788C134.092 121.851 136.078 123.938 137.896 123.938C143.352 123.368 148.841 123.188 154.323 123.399C153.371 124.384 152.672 125.584 152.286 126.897C151.899 128.21 151.835 129.597 152.101 130.94C152.803 133.607 154.21 136.037 156.174 137.975C157.285 138.682 158.093 137.436 157.655 136.123C157.453 135.45 153.986 130.334 154.996 129.088C156.006 127.843 158.564 129.088 166.003 134.743C168.056 136.292 164.118 137.773 160.786 142.687C158.867 145.582 162.267 147.063 163.176 147.736C164.084 148.41 164.926 148.544 165.835 147.905L170.817 142.553ZM154.323 165.207C130.76 202.234 125.509 241.012 143.686 289.214C144.022 290.056 145.167 293.86 146.311 293.086C149.947 290.696 130.726 260.4 137.054 215.833C142.878 174.834 169.941 151.17 170.716 147.602C171.12 145.851 170.48 145.111 168.393 145.919C163.236 151.994 158.533 158.441 154.323 165.207ZM164.825 130.031C158.261 125.083 155.669 127.27 156.915 125.15C157.52 124.106 158.126 122.928 159.103 123.366C163.781 123.77 165.397 125.554 171.052 129.391C172.028 130.064 171.254 130.805 169.706 132.32C168.797 133.329 168.999 133.128 164.96 130.031H164.825ZM164.421 145.246C161.93 143.529 160.819 147.03 190.811 112.089C192.292 110.406 194.177 108.723 195.086 110.978C195.187 111.079 164.589 145.178 164.421 145.246ZM182.43 148.612C179.468 151.136 182.127 148.612 177.01 141.879C174.654 138.783 174.351 138.783 174.789 138.278C177.515 135.08 176.943 133.565 183.473 146.323C184.146 147.232 183.473 147.736 182.531 148.544L182.43 148.612ZM190.239 163.827C189.162 164.937 189.667 164.904 188.489 148.039C188.489 146.457 201.953 135.921 206.296 130.738C210.638 125.554 209.662 126.429 211.109 141.913C211.816 143.293 211.547 142.755 190.34 163.759L190.239 163.827ZM221.645 55.6731C228.441 50.657 236.079 46.8951 244.198 44.565C256.956 41.1988 255.542 44.565 256.148 49.5804C255.821 54.3438 254.777 59.0305 253.051 63.4825C244.939 83.2753 245.645 81.4913 243.424 77.5192C233.123 59.1739 218.885 57.3898 221.645 55.6731ZM217.303 59.0392C221.611 54.9662 246.083 80.1111 242.549 84.8237C232.215 98.6921 196.264 139.086 186.772 144.909C184.795 141.061 182.545 137.36 180.04 133.834C179.198 132.589 179.097 133.43 190.98 120.202C197.712 112.527 199.631 111.652 197.274 108.757C196.264 107.511 193.572 105.694 191.855 107.444C190.138 109.194 189.196 110.373 180.747 120.067C172.971 128.954 174.587 127.944 171.826 125.857C160.718 117.475 158.732 124.073 165.835 115.018C181.764 95.2761 198.92 76.5571 217.202 58.9719L217.303 59.0392ZM156.41 101.789C157.79 100.173 157.79 100.443 174.317 98.4228C176.909 98.0862 169.571 104.044 164.219 112.123C163.007 113.873 158.429 120 156.645 120.235C156.645 120.235 139.815 120.74 139.815 120.639C139.108 120.033 148.095 111.45 156.41 101.789Z" fill="#000001"/>
<path d="M240.26 373.703C246.992 371.75 247.43 371.144 249.82 371.111C250.383 371.147 250.942 370.982 251.392 370.642C251.843 370.303 252.157 369.812 252.277 369.259C252.277 365.388 238.813 371.548 232.451 372.626C226.661 373.602 213.499 377.439 211.581 379.526C210.234 381.007 210.975 381.849 212.793 381.95C219.525 379.661 218.616 379.358 221.04 378.584C235.11 374.746 225.416 377.978 240.26 373.703Z" fill="#000001"/>
<path d="M228.376 266.728C226.289 266.997 219.355 268.512 218.278 268.815C216.292 269.32 210.065 255.553 208.483 260.669C204.612 273.258 209.93 271.205 200.067 272.047C196.028 272.383 195.961 273.461 196.062 275.413C196.062 276.726 196.533 276.995 198.956 278.476C209.896 285.208 205.116 280.327 204.208 292.782C204.208 294.499 205.083 295.306 206.463 294.869C209.593 293.825 214.542 284.771 216.831 285.949C220.142 287.094 223.513 288.061 226.929 288.844C228.848 289.382 229.656 288.372 229.42 286.891C229.05 284.535 226.458 283.525 223.866 278.745C223.294 277.634 223.428 278.139 229.857 270.431C230.968 269.017 231.473 266.358 228.376 266.728ZM220.971 280.193C224.101 285.713 225.381 285.208 219.288 283.862C212.219 282.28 215.417 281.809 208.079 289.248C207.203 290.157 208.247 286.454 208.516 282.953C208.819 278.779 200.741 277.432 199.562 275.244C200.135 275.244 199.125 275.244 204.309 274.739C210.704 274.201 207.675 270.599 210.469 264.877C212.758 266.829 215.114 272.686 217.201 272.249C234.267 268.277 217.268 273.662 220.971 280.193Z" fill="#000001"/>
<path d="M215.789 97.817C232.048 96.9754 230.903 73.177 215.284 73.5472C198.084 75.6342 201.214 98.4229 215.789 97.817ZM214.005 76.846C215.316 76.6135 216.662 76.6741 217.946 77.023C219.231 77.372 220.423 78.0009 221.435 78.8646C222.448 79.7286 223.257 80.8057 223.805 82.0192C224.352 83.2324 224.624 84.5519 224.601 85.883C224.579 87.214 224.262 88.5234 223.673 89.7172C223.085 90.9114 222.239 91.9602 221.197 92.7888C220.155 93.6175 218.943 94.2051 217.647 94.51C216.351 94.8149 215.004 94.8293 213.702 94.5518C211.656 94.1159 209.824 92.9821 208.521 91.3442C207.219 89.7066 206.526 87.6667 206.562 85.5744C206.597 83.4818 207.359 81.4669 208.718 79.8747C210.076 78.2825 211.945 77.2118 214.005 76.846Z" fill="#000001"/>
<path d="M178.659 321.732C176.438 322.136 176 325.098 178.861 325.098C193.47 324.862 194.211 298.405 180.14 298.606C178.611 298.55 177.083 298.766 175.63 299.246C175.428 297.328 178.996 288.946 175.226 282.416C171.052 275.212 158.967 275.684 155.029 285.614C153.517 289.909 152.87 294.461 153.124 299.008C153.378 303.555 154.529 308.004 156.51 312.105C157.284 313.619 159.237 312.744 158.765 310.725C148.667 282.012 168.426 274.606 172.87 284.974C176.572 293.625 168.561 303.184 172.028 305.17C174.485 306.551 175.731 301.131 180.477 301.804C186.637 302.881 187.748 309.58 186.738 314.057C185.021 321.429 180.376 321.395 178.659 321.732Z" fill="#000001"/>
<path d="M143.821 296.148C125.004 265.247 120.258 211.221 143.518 167.192C148.868 157.811 154.863 148.813 161.459 140.263C164.59 137.2 161.459 135.584 159.743 137.537C140.253 160.594 124.971 193.986 124.971 224.079C124.971 268.176 136.012 289.651 141.532 296.249C144.225 299.346 145.605 299.077 143.821 296.148Z" fill="#000001"/>
<path d="M128.202 322.74C111.371 328.024 113.29 308.501 129.952 315.267C130.158 315.39 130.388 315.469 130.627 315.494C130.866 315.522 131.107 315.494 131.335 315.418C131.563 315.343 131.771 315.216 131.945 315.051C132.119 314.885 132.254 314.683 132.342 314.459C133.251 312.406 131.467 311.901 129.75 311.329C120.561 308.265 130.794 290.728 143.518 312.136C144.561 313.887 146.345 312.675 145.941 311.329C143.248 301.735 132.477 294.498 125.745 300.389C124.313 301.598 123.355 303.275 123.041 305.124C122.727 306.972 123.077 308.871 124.028 310.487C116.084 310.689 113.93 313.853 113.021 317.993C111.203 327.755 126.923 328.9 130.928 325.062C132.477 323.514 131.198 321.797 128.202 322.74Z" fill="#000001"/>
<path d="M105.346 262.924C104.841 261.915 104.504 259.962 102.181 261.376C92.7226 267.132 94.6413 266.223 92.083 263.497C88.2457 259.491 87.2695 257.943 85.3508 258.414C84.5093 258.649 84.7112 260.366 84.9132 261.275C87.2358 272.047 87.9764 269.185 83.6004 270.801C82.5906 271.205 81.7154 271.676 77.6087 273.393C77.2219 273.57 76.8943 273.855 76.6645 274.213C76.4348 274.571 76.3125 274.987 76.3125 275.413C76.3125 275.838 76.4348 276.255 76.6645 276.613C76.8943 276.971 77.2219 277.255 77.6087 277.432C90.1307 282.111 87.3032 281.236 88.1447 286.521C89.1209 292.58 89.2892 294.095 90.5683 294.229C91.0898 294.3 91.6199 294.196 92.0763 293.934C92.5327 293.673 92.8901 293.267 93.0929 292.782C98.344 280.024 94.9106 283.39 99.8251 284.266C108.274 285.78 108.712 286.622 109.923 285.141C111.135 283.66 108.678 281.472 107.466 280.092C99.5222 270.936 101.878 276.995 105.346 262.924ZM102.855 281.337C101.056 281.203 99.3093 280.674 97.7381 279.789C93.4968 278.409 93.4968 286.891 91.8138 288.339C91.4062 286.56 91.1807 284.744 91.1405 282.919C91.1405 279.216 89.1209 278.947 82.9945 275.581C81.6481 274.807 84.7112 274.504 88.1783 272.753C91.6455 271.003 88.8852 267.637 88.8179 265.281C88.8179 263.867 91.1742 267.267 92.6553 269.118C94.9442 271.979 95.2135 267.435 101.643 265.516C100.566 271.07 96.8293 272.518 100.431 276.355C105.682 281.977 104.268 281.472 102.855 281.337Z" fill="#000001"/>
</g>
<defs>
<clipPath id="clip0_608_33">
<rect width="673.224" height="667" rx="333.5" fill="white"/>
</clipPath>
</defs>
</svg>
