<svg width="136" height="40" viewBox="0 0 136 40" fill="none" xmlns="http://www.w3.org/2000/svg">
<path fill-rule="evenodd" clip-rule="evenodd" d="M16.0384 35.9369C24.8961 35.9369 32.0767 28.7119 32.0767 19.7995C32.0767 10.8871 24.8961 3.66211 16.0384 3.66211C7.18062 3.66211 0 10.8871 0 19.7995C0 28.7119 7.18062 35.9369 16.0384 35.9369ZM16.0385 10.2943C16.0642 10.2943 16.09 10.2944 16.1157 10.2946H15.9613C15.987 10.2944 16.0127 10.2943 16.0385 10.2943ZM16.0385 29.3027C21.2552 29.3027 25.4842 25.0477 25.4844 19.7988H6.59255C6.59272 25.0477 10.8217 29.3027 16.0385 29.3027Z" fill="#7F67FB"/>
<path d="M51.7969 33.5653L53.2225 28.9716H63.4792L65.2216 32.7733C66.0136 34.4762 66.4097 34.6346 67.9145 34.3574L70.0529 33.9613C71.5182 33.6841 71.835 33.0901 71.1618 31.6645L60.3111 9.05236C59.6379 7.66633 59.8359 7.46833 58.8063 7.46833H55.4006C54.371 7.46833 53.975 7.66633 53.4998 9.05236L45.8568 32.3773C45.3816 33.8029 45.5004 34.3574 46.9656 34.6742L49.3021 35.1494C50.6881 35.4266 51.2821 35.2286 51.7969 33.5653ZM61.2219 24.0215H54.7274L57.341 15.5469L61.2219 24.0215Z" fill="black"/>
<path d="M80.2217 32.4169V7.07232C80.2217 6.00309 79.7069 5.48828 78.6377 5.48828H76.0636C74.9944 5.48828 74.4796 6.00309 74.4796 7.07232V32.4169C74.4796 33.4861 74.9944 34.0009 76.0636 34.0009H78.6377C79.7069 34.0009 80.2217 33.4861 80.2217 32.4169Z" fill="black"/>
<path d="M93.5812 34.4762C99.7589 34.4762 103.521 30.0409 103.521 24.1007C103.521 18.1606 99.7589 13.7253 93.5812 13.7253C87.4034 13.7253 83.6413 18.1606 83.6413 24.1007C83.6413 30.0409 87.4034 34.4762 93.5812 34.4762ZM93.5812 28.734C91.1655 28.734 89.1854 27.4668 89.1854 24.1007C89.1854 20.7346 91.1655 19.4674 93.5812 19.4674C95.9968 19.4674 97.9769 20.7346 97.9769 24.1007C97.9769 27.4668 95.9968 28.734 93.5812 28.734Z" fill="black"/>
<path d="M112.667 32.4169V7.07232C112.667 6.00309 112.152 5.48828 111.083 5.48828H108.509C107.439 5.48828 106.924 6.00309 106.924 7.07232V32.4169C106.924 33.4861 107.439 34.0009 108.509 34.0009H111.083C112.152 34.0009 112.667 33.4861 112.667 32.4169Z" fill="black"/>
<path d="M132.719 35.189C133.233 35.189 133.59 35.0306 133.788 34.6742C133.867 34.4762 133.907 34.2782 133.907 34.0009V22.3979C133.907 16.7745 130.422 13.3293 124.878 13.3293C121.868 13.3293 118.977 14.2401 117.116 15.7053C116.68 16.0221 116.601 16.3389 116.68 16.7349C116.759 16.9329 116.839 17.131 116.957 17.3686L117.551 18.517L118.106 19.6654C118.502 20.4178 118.977 20.7346 119.571 20.3782C121.116 19.4278 122.779 18.8734 124.244 18.8734C126.382 18.8734 127.808 19.8634 128.244 21.7643C128.283 22.0019 128.323 22.2395 128.363 22.5167C126.858 21.8831 125.155 21.4871 123.65 21.4871C118.145 21.4871 115.967 24.4967 115.967 27.942C115.967 31.6645 118.779 34.4762 122.858 34.4762C123.056 34.4762 123.294 34.4762 123.531 34.4366C125.274 34.2782 127.135 33.4861 128.363 32.2981V34.0009C128.363 34.793 128.759 35.189 129.551 35.189H132.719ZM124.244 29.526C122.779 29.526 121.512 28.8924 121.512 27.7836C121.512 26.6352 122.422 26.0412 124.244 26.0412C125.511 26.0412 127.016 26.3184 128.363 26.8332V26.9916C128.363 27.2292 128.323 27.4668 128.204 27.7044C127.689 28.8924 125.868 29.526 124.244 29.526Z" fill="black"/>
</svg>
