<svg width="193" height="129" viewBox="0 0 193 129" fill="none" xmlns="http://www.w3.org/2000/svg">
<path d="M151.242 73.4322L156.766 73.3036C217.277 72.2758 197.107 -16.6284 132.356 6.88231C84.564 24.2263 93.4287 104.009 144.561 117.113C167.173 122.894 192.354 118.783 173.596 112.359C157.537 106.963 144.561 91.4186 145.461 78.6997C145.718 75.8733 148.159 73.4322 151.242 73.4322Z" fill="#79E1CF" fill-opacity="0.12"/>
<path d="M33.1771 3.66894C-25.0215 26.0234 -1.38242 123.664 63.2399 127.903C80.07 129.06 84.4382 125.077 71.7193 120.324C59.3858 115.698 43.8405 93.8579 42.1703 79.0834C41.7849 76.1285 44.0972 73.6872 47.0521 73.6872C64.0106 73.6872 71.0769 73.6877 80.9694 60.0695C105.251 26.4093 73.004 -11.6195 33.1771 3.66894Z" fill="#79E1CF" fill-opacity="0.12"/>
</svg>
