<svg width="663" height="250" viewBox="0 0 663 250" fill="none" xmlns="http://www.w3.org/2000/svg">
<g filter="url(#filter0_dddddd_607_18)">
<rect x="80" width="503" height="70" rx="16" fill="white"/>
<circle cx="120" cy="39.2693" r="16.1071" fill="#FACC48"/>
<path d="M108.031 14H131.823V18.8765C131.823 18.8765 129.31 21.4625 119.927 21.4625C110.543 21.4625 108.031 18.8765 108.031 18.8765V14Z" fill="#7F67FB"/>
<path fill-rule="evenodd" clip-rule="evenodd" d="M121.625 27.5581C121.094 27.485 120.551 27.4473 119.999 27.4473C113.471 27.4473 108.178 32.74 108.178 39.269C108.178 45.798 113.471 51.0908 119.999 51.0908C120.551 51.0908 121.094 51.053 121.625 50.98V27.5581Z" fill="#ECB541"/>
<path d="M118.515 45.1743L113.075 39.7346C112.902 39.5613 112.908 39.2788 113.088 39.1128L115.251 37.1206C115.425 36.9603 115.696 36.9703 115.858 37.1431L118.518 39.985C118.682 40.1603 118.958 40.1677 119.131 40.0013L125.979 33.4251C126.146 33.2642 126.411 33.265 126.578 33.4268L128.548 35.3407C128.722 35.5096 128.722 35.7886 128.549 35.958L119.121 45.1777C118.952 45.3428 118.682 45.3413 118.515 45.1743Z" fill="white"/>
<path d="M160.748 41.144L161.396 40.946C161.666 40.856 161.684 40.694 161.54 40.442L159.254 36.446C160.586 35.78 161.288 34.592 161.288 33.008C161.288 30.452 159.488 28.94 156.14 28.94H153.98C153.62 28.94 153.44 29.12 153.44 29.48V40.64C153.44 41 153.62 41.18 153.98 41.18H154.412C154.772 41.18 154.952 41 154.952 40.64V37.076H156.14C156.77 37.076 157.346 37.022 157.868 36.914L160.172 40.91C160.316 41.162 160.478 41.234 160.748 41.144ZM156.212 30.542C158.66 30.542 159.776 31.514 159.776 33.008C159.776 34.484 158.66 35.474 156.212 35.474H154.952V30.542H156.212ZM167.565 41.18C168.645 41.18 169.887 40.838 170.463 40.424C170.625 40.316 170.643 40.19 170.571 40.01L170.265 39.218C170.211 39.074 170.103 39.02 169.941 39.092C169.401 39.38 168.447 39.632 167.565 39.632C165.837 39.632 164.811 38.678 164.559 37.382L170.355 36.716C170.679 36.68 170.733 36.554 170.733 36.194C170.733 33.458 169.077 32 167.115 32C164.523 32 163.047 34.232 163.047 36.68C163.047 39.362 164.829 41.18 167.565 41.18ZM167.025 33.53C168.159 33.53 169.023 34.304 169.167 35.402L164.541 35.942C164.775 34.412 165.711 33.53 167.025 33.53ZM173.918 36.77C173.918 34.718 174.944 33.71 176.636 33.71C177.464 33.71 178.382 33.98 178.922 34.268C179.066 34.34 179.192 34.286 179.246 34.142L179.552 33.35C179.624 33.188 179.588 33.044 179.444 32.936C178.868 32.522 177.662 32.18 176.618 32.18C174.116 32.18 172.478 33.998 172.478 36.77C172.478 39.452 174.116 41.18 176.618 41.18C177.734 41.18 179.03 40.856 179.624 40.424C179.768 40.316 179.804 40.172 179.732 40.01L179.426 39.218C179.372 39.074 179.246 39.02 179.102 39.092C178.526 39.398 177.536 39.65 176.636 39.65C174.944 39.65 173.918 38.714 173.918 36.77ZM185.503 41.18C188.077 41.18 189.643 39.254 189.643 36.68C189.643 33.998 188.077 32 185.503 32C182.929 32 181.345 33.998 181.345 36.68C181.345 39.254 182.929 41.18 185.503 41.18ZM185.503 39.65C183.847 39.65 182.785 38.678 182.785 36.68C182.785 34.556 183.847 33.53 185.503 33.53C187.159 33.53 188.203 34.574 188.203 36.68C188.203 38.678 187.159 39.65 185.503 39.65ZM195.547 44.78C197.599 44.78 199.219 43.844 199.219 41.018V32C199.219 31.64 199.039 31.46 198.679 31.46H198.319C197.959 31.46 197.779 31.64 197.779 32V32.612C196.951 32.234 196.051 32 195.259 32C193.135 32 191.461 33.71 191.461 36.41C191.461 39.2 193.063 41 195.079 41C196.087 41 197.095 40.586 197.779 39.722V40.766C197.779 42.818 196.807 43.25 195.511 43.25C194.557 43.25 193.351 42.944 192.865 42.692C192.721 42.62 192.595 42.674 192.541 42.818L192.217 43.628C192.145 43.79 192.199 43.934 192.361 44.024C192.991 44.402 194.269 44.78 195.547 44.78ZM195.367 39.47C194.071 39.47 192.901 38.372 192.901 36.41C192.901 34.466 193.909 33.53 195.259 33.53C196.123 33.53 197.005 33.782 197.779 34.304V36.932C197.779 38.372 196.627 39.47 195.367 39.47ZM203.361 40.64V36.068C203.361 34.628 204.513 33.53 205.773 33.53C207.015 33.53 207.789 34.322 207.789 35.978V40.46C207.789 40.82 207.969 41 208.329 41H208.689C209.049 41 209.229 40.82 209.229 40.46V35.348C209.229 33.008 207.987 32 206.277 32C205.161 32 204.081 32.558 203.361 33.458V32.18C203.361 31.82 203.181 31.64 202.821 31.64H202.461C202.101 31.64 201.921 31.82 201.921 32.18V40.64C201.921 41 202.101 41.18 202.461 41.18H202.821C203.181 41.18 203.361 41 203.361 40.64ZM212.511 30.398C213.195 30.398 213.681 29.894 213.681 29.21C213.681 28.544 213.177 28.04 212.511 28.04C211.845 28.04 211.341 28.544 211.341 29.21C211.341 29.894 211.827 30.398 212.511 30.398ZM213.231 40.46V32.9C213.231 32.54 213.051 32.36 212.691 32.36H212.331C211.971 32.36 211.791 32.54 211.791 32.9V40.46C211.791 40.82 211.971 41 212.331 41H212.691C213.051 41 213.231 40.82 213.231 40.46ZM222.069 40.802C222.195 40.712 222.249 40.568 222.177 40.406L221.799 39.578C221.727 39.416 221.601 39.398 221.457 39.47C221.169 39.614 220.485 39.848 219.981 39.848C219.009 39.848 218.595 39.326 218.595 37.616V34.178L221.259 34.268C221.511 34.268 221.691 34.07 221.691 33.836V33.116C221.691 32.882 221.619 32.738 221.367 32.738L218.595 32.648V30.38C218.595 30.146 218.469 30.02 218.235 30.02H217.515C217.281 30.02 217.155 30.146 217.155 30.38V32.594L215.805 32.558C215.553 32.558 215.373 32.756 215.373 32.99V33.71C215.373 33.944 215.445 34.088 215.697 34.088L217.155 34.142V38.048C217.155 40.352 218.235 41.36 220.017 41.36C220.809 41.36 221.601 41.108 222.069 40.802ZM224.99 30.398C225.674 30.398 226.16 29.894 226.16 29.21C226.16 28.544 225.656 28.04 224.99 28.04C224.324 28.04 223.82 28.544 223.82 29.21C223.82 29.894 224.306 30.398 224.99 30.398ZM225.71 40.46V32.9C225.71 32.54 225.53 32.36 225.17 32.36H224.81C224.45 32.36 224.27 32.54 224.27 32.9V40.46C224.27 40.82 224.45 41 224.81 41H225.17C225.53 41 225.71 40.82 225.71 40.46ZM232.118 41.18C234.692 41.18 236.258 39.254 236.258 36.68C236.258 33.998 234.692 32 232.118 32C229.544 32 227.96 33.998 227.96 36.68C227.96 39.254 229.544 41.18 232.118 41.18ZM232.118 39.65C230.462 39.65 229.4 38.678 229.4 36.68C229.4 34.556 230.462 33.53 232.118 33.53C233.774 33.53 234.818 34.574 234.818 36.68C234.818 38.678 233.774 39.65 232.118 39.65ZM239.966 40.64V36.068C239.966 34.628 241.118 33.53 242.378 33.53C243.62 33.53 244.394 34.322 244.394 35.978V40.46C244.394 40.82 244.574 41 244.934 41H245.294C245.654 41 245.834 40.82 245.834 40.46V35.348C245.834 33.008 244.592 32 242.882 32C241.766 32 240.686 32.558 239.966 33.458V32.18C239.966 31.82 239.786 31.64 239.426 31.64H239.066C238.706 31.64 238.526 31.82 238.526 32.18V40.64C238.526 41 238.706 41.18 239.066 41.18H239.426C239.786 41.18 239.966 41 239.966 40.64ZM254.672 40.64V33.8L256.796 33.728C257.048 33.71 257.228 33.53 257.228 33.296V32.576C257.228 32.342 257.156 32.18 256.904 32.198L254.672 32.27V31.604C254.672 30.074 255.05 29.408 255.95 29.372C256.04 29.372 256.13 29.372 256.238 29.39L256.616 29.426C256.94 29.462 257.048 29.39 257.102 29.138L257.192 28.598L257.246 28.328C257.3 28.04 257.21 27.932 256.922 27.914C256.85 27.914 256.76 27.896 256.688 27.896L256.454 27.878C254.456 27.716 253.232 28.886 253.232 31.172V32.324L251.882 32.378C251.63 32.396 251.45 32.576 251.45 32.81V33.53C251.45 33.764 251.522 33.926 251.774 33.908L253.232 33.854V40.64C253.232 40.874 253.358 41 253.592 41H254.312C254.546 41 254.672 40.874 254.672 40.64ZM260.821 40.64V35.888C260.821 34.628 261.649 33.71 262.747 33.71C263.017 33.71 263.341 33.764 263.845 33.854C264.025 33.89 264.151 33.872 264.187 33.656L264.367 32.54C264.385 32.378 264.367 32.306 264.241 32.234C264.007 32.108 263.575 32 263.161 32C262.189 32 261.379 32.432 260.821 33.152V32C260.821 31.64 260.641 31.46 260.281 31.46H259.921C259.561 31.46 259.381 31.64 259.381 32V40.64C259.381 41 259.561 41.18 259.921 41.18H260.281C260.641 41.18 260.821 41 260.821 40.64ZM269.813 41.18C272.387 41.18 273.953 39.254 273.953 36.68C273.953 33.998 272.387 32 269.813 32C267.239 32 265.655 33.998 265.655 36.68C265.655 39.254 267.239 41.18 269.813 41.18ZM269.813 39.65C268.157 39.65 267.095 38.678 267.095 36.68C267.095 34.556 268.157 33.53 269.813 33.53C271.469 33.53 272.513 34.574 272.513 36.68C272.513 38.678 271.469 39.65 269.813 39.65ZM283.258 40.64V36.968C283.258 34.7 284.122 33.71 285.544 33.71C286.714 33.71 287.416 34.61 287.416 36.518V40.46C287.416 40.82 287.596 41 287.956 41H288.316C288.676 41 288.856 40.82 288.856 40.46V35.888C288.856 33.476 287.668 32.18 286.048 32.18C284.734 32.18 283.654 32.738 282.97 33.89C282.538 32.648 281.602 32 280.45 32C279.28 32 278.308 32.486 277.66 33.512V32C277.66 31.64 277.48 31.46 277.12 31.46H276.76C276.4 31.46 276.22 31.64 276.22 32V40.46C276.22 40.82 276.4 41 276.76 41H277.12C277.48 41 277.66 40.82 277.66 40.46V36.788C277.66 34.52 278.524 33.53 279.946 33.53C281.116 33.53 281.818 34.43 281.818 36.338V40.64C281.818 41 281.998 41.18 282.358 41.18H282.718C283.078 41.18 283.258 41 283.258 40.64ZM296.81 40.64V29.3C296.81 28.94 296.63 28.76 296.27 28.76H295.838C295.478 28.76 295.298 28.94 295.298 29.3V40.64C295.298 41 295.478 41.18 295.838 41.18H296.27C296.63 41.18 296.81 41 296.81 40.64ZM301.223 40.64V36.068C301.223 34.628 302.375 33.53 303.635 33.53C304.877 33.53 305.651 34.322 305.651 35.978V40.46C305.651 40.82 305.831 41 306.191 41H306.551C306.911 41 307.091 40.82 307.091 40.46V35.348C307.091 33.008 305.849 32 304.139 32C303.023 32 301.943 32.558 301.223 33.458V32.18C301.223 31.82 301.043 31.64 300.683 31.64H300.323C299.963 31.64 299.783 31.82 299.783 32.18V40.64C299.783 41 299.963 41.18 300.323 41.18H300.683C301.043 41.18 301.223 41 301.223 40.64ZM316.456 41.18C316.816 41.18 316.996 41 316.996 40.64V28.58C316.996 28.22 316.816 28.04 316.456 28.04H316.096C315.736 28.04 315.556 28.22 315.556 28.58V32.612C314.728 32.234 313.828 32 313.036 32C310.912 32 309.238 33.71 309.238 36.41C309.238 39.2 310.84 41 312.856 41C313.864 41 314.872 40.586 315.556 39.722V40.64C315.556 41 315.736 41.18 316.096 41.18H316.456ZM313.144 39.47C311.848 39.47 310.678 38.372 310.678 36.41C310.678 34.466 311.686 33.53 313.036 33.53C313.9 33.53 314.782 33.782 315.556 34.304V36.932C315.556 38.372 314.404 39.47 313.144 39.47ZM320.4 30.398C321.084 30.398 321.57 29.894 321.57 29.21C321.57 28.544 321.066 28.04 320.4 28.04C319.734 28.04 319.23 28.544 319.23 29.21C319.23 29.894 319.716 30.398 320.4 30.398ZM321.12 40.46V32.9C321.12 32.54 320.94 32.36 320.58 32.36H320.22C319.86 32.36 319.68 32.54 319.68 32.9V40.46C319.68 40.82 319.86 41 320.22 41H320.58C320.94 41 321.12 40.82 321.12 40.46ZM330.03 41.36C330.264 41.36 330.39 41.234 330.39 41V35.726C330.39 33.134 329.022 31.82 326.826 31.82C325.566 31.82 324.432 32.216 323.694 32.72C323.568 32.81 323.514 32.954 323.586 33.116C323.622 33.206 323.676 33.296 323.712 33.386L323.982 33.926C324.054 34.07 324.18 34.124 324.324 34.034C325.026 33.602 325.836 33.35 326.538 33.35C328.05 33.35 328.95 34.178 328.95 35.798V35.96C328.176 35.636 327.258 35.492 326.448 35.492C324.198 35.492 323.316 36.77 323.316 38.246C323.316 39.812 324.432 41.018 326.088 41.162C326.196 41.18 326.322 41.18 326.448 41.18C327.438 41.18 328.356 40.82 328.95 40.244V41C328.95 41.234 329.076 41.36 329.31 41.36H330.03ZM326.538 39.65C325.584 39.65 324.756 39.11 324.756 38.174C324.756 37.418 325.35 36.932 326.538 36.932C327.276 36.932 328.194 37.094 328.95 37.382V38.138C328.95 38.93 327.834 39.65 326.538 39.65ZM334.715 30.65C334.715 29.39 334.139 28.688 333.347 28.688C332.645 28.688 332.141 29.228 332.141 29.858C332.141 30.686 332.771 31.1 333.455 31.1L333.473 31.244C333.545 31.892 333.275 32.252 332.357 32.18C332.195 32.162 332.105 32.342 332.105 32.522V33.026C332.105 33.188 332.213 33.278 332.465 33.278C334.283 33.278 334.715 32.126 334.715 30.65ZM336.802 34.556C336.802 37.598 341.464 36.986 341.464 38.714C341.464 39.308 340.888 39.65 339.754 39.65C339.052 39.65 338.206 39.452 337.378 39.038C337.234 38.966 337.108 39.002 337.036 39.164L336.64 39.974C336.568 40.136 336.622 40.28 336.766 40.37C337.468 40.82 338.764 41.18 339.646 41.18C341.698 41.18 342.904 40.226 342.904 38.714C342.904 35.672 338.242 36.284 338.242 34.556C338.242 33.908 338.764 33.53 339.772 33.53C340.384 33.53 341.122 33.71 341.77 33.98C341.914 34.034 342.058 33.98 342.13 33.836L342.526 33.026C342.598 32.864 342.544 32.72 342.4 32.63C341.842 32.27 340.654 32 339.88 32C337.792 32 336.802 33.08 336.802 34.556Z" fill="#646464"/>
<path d="M356.75 40.28V31.64H359.918C360.386 31.64 360.62 31.406 360.62 30.938V29.66C360.62 29.174 360.386 28.94 359.9 28.94H350.972C350.486 28.94 350.252 29.174 350.252 29.66V30.938C350.252 31.406 350.486 31.64 350.954 31.64H354.14V40.28C354.14 40.766 354.374 41 354.86 41H356.03C356.516 41 356.75 40.766 356.75 40.28ZM364.783 41.216C367.591 41.216 369.301 39.2 369.301 36.5C369.301 33.8 367.591 31.784 364.783 31.784C361.975 31.784 360.265 33.8 360.265 36.5C360.265 39.2 361.975 41.216 364.783 41.216ZM364.783 38.606C363.685 38.606 362.785 38.03 362.785 36.5C362.785 34.97 363.685 34.394 364.783 34.394C365.881 34.394 366.781 34.97 366.781 36.5C366.781 38.03 365.881 38.606 364.783 38.606ZM373.368 44.06V41C373.962 41.144 374.556 41.216 375.168 41.216C377.706 41.216 379.686 39.434 379.686 36.608C379.686 33.818 377.976 32 375.888 32C374.898 32 373.998 32.36 373.368 33.026V32.36C373.368 31.874 373.134 31.64 372.648 31.64H371.568C371.082 31.64 370.848 31.874 370.848 32.36V44.06C370.848 44.546 371.082 44.78 371.568 44.78H372.648C373.134 44.78 373.368 44.546 373.368 44.06ZM375.168 38.624C374.484 38.624 373.908 38.534 373.368 38.354V37.004C373.368 35.474 374.106 34.61 375.366 34.61C376.464 34.61 377.166 35.438 377.166 36.608C377.166 37.958 376.32 38.624 375.168 38.624ZM390.861 38.516C388.647 38.516 387.495 37.022 387.495 34.97C387.495 32.954 388.647 31.424 390.861 31.424C391.743 31.424 392.895 31.802 393.489 32.072C393.903 32.252 394.119 32.162 394.263 31.802L394.803 30.47C394.947 30.128 394.911 29.948 394.695 29.804C393.543 29.102 392.121 28.724 390.861 28.724C387.243 28.724 384.885 31.208 384.885 34.97C384.885 38.768 387.243 41.216 390.825 41.216C392.103 41.216 393.525 40.838 394.695 40.136C394.911 39.992 394.947 39.812 394.803 39.47L394.263 38.138C394.119 37.778 393.903 37.688 393.489 37.868C392.895 38.138 391.743 38.516 390.861 38.516ZM398.97 40.28V36.788C398.97 35.132 399.744 34.394 400.932 34.394C401.796 34.394 402.318 35.024 402.318 36.338V40.64C402.318 41.126 402.552 41.36 403.038 41.36H404.118C404.604 41.36 404.838 41.126 404.838 40.64V35.528C404.838 32.918 403.542 31.784 401.796 31.784C400.788 31.784 399.654 32.288 398.97 33.35V29.12C398.97 28.634 398.736 28.4 398.25 28.4H397.17C396.684 28.4 396.45 28.634 396.45 29.12V40.28C396.45 40.766 396.684 41 397.17 41H398.25C398.736 41 398.97 40.766 398.97 40.28ZM407.949 31.118C408.777 31.118 409.479 30.416 409.479 29.57C409.479 28.742 408.777 28.04 407.949 28.04C407.121 28.04 406.419 28.742 406.419 29.57C406.419 30.416 407.121 31.118 407.949 31.118ZM409.209 40.28V33.08C409.209 32.594 408.975 32.36 408.489 32.36H407.409C406.923 32.36 406.689 32.594 406.689 33.08V40.28C406.689 40.766 406.923 41 407.409 41H408.489C408.975 41 409.209 40.766 409.209 40.28ZM413.807 40.28V28.76C413.807 28.274 413.573 28.04 413.087 28.04H411.917C411.431 28.04 411.197 28.274 411.197 28.76V40.28C411.197 40.766 411.431 41 411.917 41H413.087C413.573 41 413.807 40.766 413.807 40.28ZM423.48 41.36C423.966 41.36 424.2 41.126 424.2 40.64V28.76C424.2 28.274 423.966 28.04 423.48 28.04H422.4C421.914 28.04 421.68 28.274 421.68 28.76V32C421.086 31.856 420.492 31.784 419.88 31.784C417.342 31.784 415.362 33.566 415.362 36.392C415.362 39.182 417.072 41 419.16 41C420.15 41 421.05 40.64 421.68 39.974V40.64C421.68 41.126 421.914 41.36 422.4 41.36H423.48ZM419.682 38.39C418.584 38.39 417.882 37.562 417.882 36.392C417.882 35.042 418.728 34.376 419.88 34.376C420.564 34.376 421.14 34.466 421.68 34.646V35.996C421.68 37.526 420.942 38.39 419.682 38.39ZM432.297 41.36C432.783 41.36 433.017 41.126 433.017 40.64V38.282L433.935 38.192C436.815 37.904 439.299 36.608 439.299 33.548C439.299 30.182 437.031 28.94 433.971 28.94H431.127C430.641 28.94 430.407 29.174 430.407 29.66V40.64C430.407 41.126 430.641 41.36 431.127 41.36H432.297ZM434.043 31.64C435.429 31.64 436.689 32.072 436.689 33.548C436.689 34.754 435.411 35.366 434.007 35.492L433.017 35.582V31.64H434.043ZM440.616 34.682C440.616 38.048 445.008 37.058 445.008 38.354C445.008 38.714 444.648 38.84 444.054 38.84C443.154 38.84 442.2 38.48 441.606 38.156C441.336 37.994 441.048 38.174 440.94 38.48L440.58 39.488C440.472 39.776 440.364 40.01 440.652 40.244C441.498 40.928 442.74 41.216 443.91 41.216C445.584 41.216 447.438 40.388 447.438 38.048C447.438 34.79 443.046 35.852 443.046 34.556C443.046 34.232 443.28 34.07 443.748 34.07C444.486 34.07 445.134 34.286 445.998 34.628C446.268 34.736 446.538 34.61 446.664 34.304L447.042 33.368C447.168 33.08 447.258 32.828 446.97 32.612C446.196 32.036 444.954 31.784 444 31.784C441.876 31.784 440.616 33.026 440.616 34.682ZM452.977 44.78C455.335 44.78 457.189 43.664 457.189 40.838V32.72C457.189 32.234 456.955 32 456.469 32H455.389C454.903 32 454.669 32.234 454.669 32.72V35.852C454.669 37.508 453.895 38.246 452.707 38.246C451.843 38.246 451.321 37.616 451.321 36.302V32.36C451.321 31.874 451.087 31.64 450.601 31.64H449.521C449.035 31.64 448.801 31.874 448.801 32.36V37.112C448.801 39.722 450.097 40.856 451.843 40.856C452.851 40.856 453.985 40.352 454.669 39.29V40.586C454.669 41.81 453.931 42.17 452.941 42.17C452.095 42.17 451.087 41.792 450.403 41.414C450.079 41.216 449.935 41.414 449.737 41.918L449.305 42.998C449.179 43.304 449.089 43.52 449.377 43.754C450.295 44.492 451.735 44.78 452.977 44.78ZM461.254 36.626C461.254 35.276 461.992 34.61 463.216 34.61C463.954 34.61 464.872 34.952 465.466 35.294C465.736 35.456 465.97 35.312 466.132 34.97L466.636 33.836C466.78 33.53 466.852 33.314 466.564 33.08C465.682 32.378 464.35 32 463.198 32C460.498 32 458.734 33.836 458.734 36.626C458.734 39.416 460.498 41.216 463.198 41.216C464.35 41.216 465.682 40.838 466.564 40.136C466.852 39.902 466.78 39.686 466.636 39.38L466.132 38.246C465.97 37.904 465.736 37.76 465.466 37.922C464.872 38.264 463.954 38.606 463.216 38.606C461.992 38.606 461.254 37.976 461.254 36.626ZM470.765 40.28V36.788C470.765 35.132 471.539 34.394 472.727 34.394C473.591 34.394 474.113 35.024 474.113 36.338V40.64C474.113 41.126 474.347 41.36 474.833 41.36H475.913C476.399 41.36 476.633 41.126 476.633 40.64V35.528C476.633 32.918 475.337 31.784 473.591 31.784C472.583 31.784 471.449 32.288 470.765 33.35V29.12C470.765 28.634 470.531 28.4 470.045 28.4H468.965C468.479 28.4 468.245 28.634 468.245 29.12V40.28C468.245 40.766 468.479 41 468.965 41H470.045C470.531 41 470.765 40.766 470.765 40.28ZM485.611 41.54C485.845 41.54 486.007 41.468 486.097 41.306C486.133 41.216 486.151 41.126 486.151 41V35.726C486.151 33.17 484.567 31.604 482.047 31.604C480.679 31.604 479.365 32.018 478.519 32.684C478.321 32.828 478.285 32.972 478.321 33.152C478.357 33.242 478.393 33.332 478.447 33.44L478.717 33.962L478.969 34.484C479.149 34.826 479.365 34.97 479.635 34.808C480.337 34.376 481.093 34.124 481.759 34.124C482.731 34.124 483.379 34.574 483.577 35.438C483.595 35.546 483.613 35.654 483.631 35.78C482.947 35.492 482.173 35.312 481.489 35.312C478.987 35.312 477.997 36.68 477.997 38.246C477.997 39.938 479.275 41.216 481.129 41.216C481.219 41.216 481.327 41.216 481.435 41.198C482.227 41.126 483.073 40.766 483.631 40.226V41C483.631 41.36 483.811 41.54 484.171 41.54H485.611ZM481.759 38.966C481.093 38.966 480.517 38.678 480.517 38.174C480.517 37.652 480.931 37.382 481.759 37.382C482.335 37.382 483.019 37.508 483.631 37.742V37.814C483.631 37.922 483.613 38.03 483.559 38.138C483.325 38.678 482.497 38.966 481.759 38.966ZM495.112 40.424C495.418 40.208 495.328 39.974 495.184 39.668L494.716 38.624C494.572 38.282 494.32 38.138 494.05 38.3C493.654 38.552 493.132 38.822 492.664 38.822C491.908 38.822 491.44 38.444 491.44 37.292V35.564L493.924 35.708C494.284 35.726 494.536 35.438 494.536 35.096V33.656C494.536 33.314 494.428 33.116 494.032 33.098L491.44 32.936V30.74C491.44 30.38 491.26 30.2 490.9 30.2H489.46C489.1 30.2 488.92 30.38 488.92 30.74V32.792L487.984 32.738C487.624 32.72 487.372 33.008 487.372 33.35V34.79C487.372 35.132 487.48 35.33 487.876 35.348L488.92 35.402V37.742C488.92 40.172 490.054 41.396 492.016 41.396C493.096 41.396 494.284 41.054 495.112 40.424ZM499.179 40.28V36.788C499.179 35.33 499.935 34.574 500.925 34.574C501.231 34.574 501.573 34.61 502.077 34.718C502.383 34.79 502.545 34.7 502.563 34.43L502.743 32.36C502.761 32.234 502.725 32.108 502.581 32.018C502.347 31.874 501.933 31.784 501.537 31.784C500.691 31.784 499.773 32.342 499.179 33.314V31.82C499.179 31.334 498.945 31.1 498.459 31.1H497.379C496.893 31.1 496.659 31.334 496.659 31.82V40.28C496.659 40.766 496.893 41 497.379 41H498.459C498.945 41 499.179 40.766 499.179 40.28ZM505.345 31.118C506.173 31.118 506.875 30.416 506.875 29.57C506.875 28.742 506.173 28.04 505.345 28.04C504.517 28.04 503.815 28.742 503.815 29.57C503.815 30.416 504.517 31.118 505.345 31.118ZM506.605 40.28V33.08C506.605 32.594 506.371 32.36 505.885 32.36H504.805C504.319 32.36 504.085 32.594 504.085 33.08V40.28C504.085 40.766 504.319 41 504.805 41H505.885C506.371 41 506.605 40.766 506.605 40.28ZM508.341 34.682C508.341 38.048 512.733 37.058 512.733 38.354C512.733 38.714 512.373 38.84 511.779 38.84C510.879 38.84 509.925 38.48 509.331 38.156C509.061 37.994 508.773 38.174 508.665 38.48L508.305 39.488C508.197 39.776 508.089 40.01 508.377 40.244C509.223 40.928 510.465 41.216 511.635 41.216C513.309 41.216 515.163 40.388 515.163 38.048C515.163 34.79 510.771 35.852 510.771 34.556C510.771 34.232 511.005 34.07 511.473 34.07C512.211 34.07 512.859 34.286 513.723 34.628C513.993 34.736 514.263 34.61 514.389 34.304L514.767 33.368C514.893 33.08 514.983 32.828 514.695 32.612C513.921 32.036 512.679 31.784 511.725 31.784C509.601 31.784 508.341 33.026 508.341 34.682ZM523.781 40.424C524.087 40.208 523.997 39.974 523.853 39.668L523.385 38.624C523.241 38.282 522.989 38.138 522.719 38.3C522.323 38.552 521.801 38.822 521.333 38.822C520.577 38.822 520.109 38.444 520.109 37.292V35.564L522.593 35.708C522.953 35.726 523.205 35.438 523.205 35.096V33.656C523.205 33.314 523.097 33.116 522.701 33.098L520.109 32.936V30.74C520.109 30.38 519.929 30.2 519.569 30.2H518.129C517.769 30.2 517.589 30.38 517.589 30.74V32.792L516.653 32.738C516.293 32.72 516.041 33.008 516.041 33.35V34.79C516.041 35.132 516.149 35.33 516.545 35.348L517.589 35.402V37.742C517.589 40.172 518.723 41.396 520.685 41.396C521.765 41.396 522.953 41.054 523.781 40.424ZM525.075 34.682C525.075 38.048 529.467 37.058 529.467 38.354C529.467 38.714 529.107 38.84 528.513 38.84C527.613 38.84 526.659 38.48 526.065 38.156C525.795 37.994 525.507 38.174 525.399 38.48L525.039 39.488C524.931 39.776 524.823 40.01 525.111 40.244C525.957 40.928 527.199 41.216 528.369 41.216C530.043 41.216 531.897 40.388 531.897 38.048C531.897 34.79 527.505 35.852 527.505 34.556C527.505 34.232 527.739 34.07 528.207 34.07C528.945 34.07 529.593 34.286 530.457 34.628C530.727 34.736 530.997 34.61 531.123 34.304L531.501 33.368C531.627 33.08 531.717 32.828 531.429 32.612C530.655 32.036 529.413 31.784 528.459 31.784C526.335 31.784 525.075 33.026 525.075 34.682Z" fill="#7F67FB"/>
<rect x="80.5" y="0.5" width="502" height="69" rx="15.5" stroke="#7F67FB" stroke-opacity="0.24"/>
</g>
<defs>
<filter id="filter0_dddddd_607_18" x="0" y="0" width="663" height="250" filterUnits="userSpaceOnUse" color-interpolation-filters="sRGB">
<feFlood flood-opacity="0" result="BackgroundImageFix"/>
<feColorMatrix in="SourceAlpha" type="matrix" values="0 0 0 0 0 0 0 0 0 0 0 0 0 0 0 0 0 0 127 0" result="hardAlpha"/>
<feOffset dy="2.76726"/>
<feGaussianBlur stdDeviation="1.1069"/>
<feColorMatrix type="matrix" values="0 0 0 0 0 0 0 0 0 0 0 0 0 0 0 0 0 0 0.0196802 0"/>
<feBlend mode="normal" in2="BackgroundImageFix" result="effect1_dropShadow_607_18"/>
<feColorMatrix in="SourceAlpha" type="matrix" values="0 0 0 0 0 0 0 0 0 0 0 0 0 0 0 0 0 0 127 0" result="hardAlpha"/>
<feOffset dy="6.6501"/>
<feGaussianBlur stdDeviation="2.66004"/>
<feColorMatrix type="matrix" values="0 0 0 0 0 0 0 0 0 0 0 0 0 0 0 0 0 0 0.0282725 0"/>
<feBlend mode="normal" in2="effect1_dropShadow_607_18" result="effect2_dropShadow_607_18"/>
<feColorMatrix in="SourceAlpha" type="matrix" values="0 0 0 0 0 0 0 0 0 0 0 0 0 0 0 0 0 0 127 0" result="hardAlpha"/>
<feOffset dy="12.5216"/>
<feGaussianBlur stdDeviation="5.00862"/>
<feColorMatrix type="matrix" values="0 0 0 0 0 0 0 0 0 0 0 0 0 0 0 0 0 0 0.035 0"/>
<feBlend mode="normal" in2="effect2_dropShadow_607_18" result="effect3_dropShadow_607_18"/>
<feColorMatrix in="SourceAlpha" type="matrix" values="0 0 0 0 0 0 0 0 0 0 0 0 0 0 0 0 0 0 127 0" result="hardAlpha"/>
<feOffset dy="22.3363"/>
<feGaussianBlur stdDeviation="8.93452"/>
<feColorMatrix type="matrix" values="0 0 0 0 0 0 0 0 0 0 0 0 0 0 0 0 0 0 0.0417275 0"/>
<feBlend mode="normal" in2="effect3_dropShadow_607_18" result="effect4_dropShadow_607_18"/>
<feColorMatrix in="SourceAlpha" type="matrix" values="0 0 0 0 0 0 0 0 0 0 0 0 0 0 0 0 0 0 127 0" result="hardAlpha"/>
<feOffset dy="41.7776"/>
<feGaussianBlur stdDeviation="16.711"/>
<feColorMatrix type="matrix" values="0 0 0 0 0 0 0 0 0 0 0 0 0 0 0 0 0 0 0.0503198 0"/>
<feBlend mode="normal" in2="effect4_dropShadow_607_18" result="effect5_dropShadow_607_18"/>
<feColorMatrix in="SourceAlpha" type="matrix" values="0 0 0 0 0 0 0 0 0 0 0 0 0 0 0 0 0 0 127 0" result="hardAlpha"/>
<feOffset dy="100"/>
<feGaussianBlur stdDeviation="40"/>
<feColorMatrix type="matrix" values="0 0 0 0 0 0 0 0 0 0 0 0 0 0 0 0 0 0 0.07 0"/>
<feBlend mode="normal" in2="effect5_dropShadow_607_18" result="effect6_dropShadow_607_18"/>
<feBlend mode="normal" in="SourceGraphic" in2="effect6_dropShadow_607_18" result="shape"/>
</filter>
</defs>
</svg>
