<svg width="729" height="66" viewBox="0 0 729 66" fill="none" xmlns="http://www.w3.org/2000/svg">
<mask id="path-1-inside-1_607_30" fill="white">
<path d="M12.76 59.84V26.576L24.024 43.472C24.728 44.616 25.52 44.88 26.312 44.88H30.8C31.592 44.88 32.296 44.704 33.088 43.56L43.912 27.632V61.6C43.912 63.976 45.056 65.12 47.432 65.12H53.152C55.528 65.12 56.672 63.976 56.672 61.6V7.92C56.672 5.544 55.528 4.4 53.152 4.4H47.432C45.584 4.4 44.88 5.28 44.088 6.512L28.952 28.688L12.32 3.872C11.616 2.816 10.736 2.64 9.24 2.64H3.52C1.144 2.64 0 3.784 0 6.16V59.84C0 62.216 1.144 63.36 3.52 63.36H9.24C11.616 63.36 12.76 62.216 12.76 59.84Z"/>
<path d="M99.8511 66C100.995 66 101.787 65.648 102.227 64.856C102.403 64.416 102.491 63.976 102.491 63.36V37.576C102.491 25.08 94.7471 17.424 82.4271 17.424C75.7391 17.424 69.3151 19.448 65.1791 22.704C64.2111 23.408 64.0351 24.112 64.2111 24.992C64.3871 25.432 64.5631 25.872 64.8271 26.4L66.1471 28.952L67.3791 31.504C68.2591 33.176 69.3151 33.88 70.6351 33.088C74.0671 30.976 77.7631 29.744 81.0191 29.744C85.7711 29.744 88.9391 31.944 89.9071 36.168C89.9951 36.696 90.0831 37.224 90.1711 37.84C86.8271 36.432 83.0431 35.552 79.6991 35.552C67.4671 35.552 62.6271 42.24 62.6271 49.896C62.6271 58.168 68.8751 64.416 77.9391 64.416C78.3791 64.416 78.9071 64.416 79.4351 64.328C83.3071 63.976 87.4431 62.216 90.1711 59.576V63.36C90.1711 65.12 91.0511 66 92.8111 66H99.8511ZM81.0191 53.416C77.7631 53.416 74.9471 52.008 74.9471 49.544C74.9471 46.992 76.9711 45.672 81.0191 45.672C83.8351 45.672 87.1791 46.288 90.1711 47.432V47.784C90.1711 48.312 90.0831 48.84 89.8191 49.368C88.6751 52.008 84.6271 53.416 81.0191 53.416Z"/>
<path d="M143.835 65.208L148.323 62.04C150.347 60.632 150.963 59.312 149.555 57.376L137.587 41.536L149.731 29.392C151.403 27.72 150.787 26.136 149.203 24.64L144.803 20.416C143.131 18.744 141.547 19.184 140.051 20.768L129.667 31.152L119.459 17.688C118.051 15.752 116.819 15.136 114.795 16.544L110.307 19.712C108.283 21.12 107.667 22.44 109.075 24.376L120.867 39.952L106.435 54.472C104.939 56.056 105.203 57.552 106.963 59.312L111.363 63.536C113.035 65.208 114.443 64.68 116.115 63.008L128.787 50.336L139.171 64.064C140.579 66 141.811 66.616 143.835 65.208Z"/>
<path d="M161.012 15.048C165.06 15.048 168.493 11.616 168.493 7.48C168.493 3.432 165.06 0 161.012 0C156.964 0 153.533 3.432 153.533 7.48C153.533 11.616 156.964 15.048 161.012 15.048ZM167.173 59.84V24.64C167.173 22.264 166.028 21.12 163.652 21.12H158.372C155.996 21.12 154.852 22.264 154.852 24.64V59.84C154.852 62.216 155.996 63.36 158.372 63.36H163.652C166.028 63.36 167.173 62.216 167.173 59.84Z"/>
<path d="M213.942 61.6V43.824C213.942 35.64 216.406 32.032 222.214 32.032C226.438 32.032 228.99 35.112 228.99 41.624V59.84C228.99 62.216 230.134 63.36 232.51 63.36H237.79C240.166 63.36 241.31 62.216 241.31 59.84V37.664C241.31 24.904 234.974 19.36 226.438 19.36C220.894 19.36 215.614 21.912 212.534 27.456C210.158 21.12 205.142 18.304 199.07 18.304C194.318 18.304 189.566 20.68 186.574 25.52V19.36C186.574 16.984 185.43 15.84 183.054 15.84H177.774C175.398 15.84 174.254 16.984 174.254 19.36V59.84C174.254 62.216 175.398 63.36 177.774 63.36H183.054C185.43 63.36 186.574 62.216 186.574 59.84V42.768C186.574 34.584 189.038 30.976 194.846 30.976C199.07 30.976 201.622 34.056 201.622 40.568V61.6C201.622 63.976 202.766 65.12 205.142 65.12H210.422C212.798 65.12 213.942 63.976 213.942 61.6Z"/>
<path d="M275.782 59.84C275.782 62.216 276.926 63.36 279.302 63.36H284.582C286.958 63.36 288.102 62.216 288.102 59.84V19.36C288.102 16.984 286.958 15.84 284.582 15.84H279.302C276.926 15.84 275.782 16.984 275.782 19.36V39.952C275.782 48.048 271.998 51.656 266.19 51.656C261.966 51.656 259.414 48.576 259.414 42.152V22.88C259.414 20.504 258.27 19.36 255.894 19.36H250.614C248.238 19.36 247.094 20.504 247.094 22.88V46.112C247.094 58.872 253.43 64.416 261.966 64.416C266.894 64.416 272.438 61.952 275.782 56.76V59.84Z"/>
<path d="M334.815 61.6V43.824C334.815 35.64 337.279 32.032 343.087 32.032C347.311 32.032 349.863 35.112 349.863 41.624V59.84C349.863 62.216 351.007 63.36 353.383 63.36H358.663C361.039 63.36 362.183 62.216 362.183 59.84V37.664C362.183 24.904 355.847 19.36 347.311 19.36C341.767 19.36 336.487 21.912 333.407 27.456C331.031 21.12 326.015 18.304 319.943 18.304C315.191 18.304 310.439 20.68 307.447 25.52V19.36C307.447 16.984 306.303 15.84 303.927 15.84H298.647C296.271 15.84 295.127 16.984 295.127 19.36V59.84C295.127 62.216 296.271 63.36 298.647 63.36H303.927C306.303 63.36 307.447 62.216 307.447 59.84V42.768C307.447 34.584 309.911 30.976 315.719 30.976C319.943 30.976 322.495 34.056 322.495 40.568V61.6C322.495 63.976 323.639 65.12 326.015 65.12H331.295C333.671 65.12 334.815 63.976 334.815 61.6Z"/>
<path d="M395.88 65.12C398.256 65.12 399.4 63.976 399.4 61.6V50.072L403.888 49.632C417.968 48.224 430.112 41.888 430.112 26.928C430.112 10.472 419.024 4.4 404.064 4.4H390.16C387.784 4.4 386.64 5.544 386.64 7.92V61.6C386.64 63.976 387.784 65.12 390.16 65.12H395.88ZM404.416 17.6C411.192 17.6 417.352 19.712 417.352 26.928C417.352 32.824 411.104 35.816 404.24 36.432L399.4 36.872V17.6H404.416Z"/>
<path d="M455.119 64.416C468.847 64.416 477.207 54.56 477.207 41.36C477.207 28.16 468.847 18.304 455.119 18.304C441.391 18.304 433.031 28.16 433.031 41.36C433.031 54.56 441.391 64.416 455.119 64.416ZM455.119 51.656C449.751 51.656 445.351 48.84 445.351 41.36C445.351 33.88 449.751 31.064 455.119 31.064C460.487 31.064 464.887 33.88 464.887 41.36C464.887 48.84 460.487 51.656 455.119 51.656Z"/>
<path d="M516.978 60.544C518.474 59.488 518.034 58.344 517.33 56.848L515.042 51.744C514.338 50.072 513.106 49.368 511.786 50.16C509.85 51.392 507.298 52.712 505.01 52.712C501.314 52.712 499.026 50.864 499.026 45.232V36.784L511.17 37.488C512.93 37.576 514.162 36.168 514.162 34.496V27.456C514.162 25.784 513.634 24.816 511.698 24.728L499.026 23.936V13.2C499.026 11.44 498.146 10.56 496.386 10.56H489.346C487.586 10.56 486.706 11.44 486.706 13.2V23.232L482.13 22.968C480.37 22.88 479.138 24.288 479.138 25.96V33C479.138 34.672 479.666 35.64 481.602 35.728L486.706 35.992V47.432C486.706 59.312 492.25 65.296 501.842 65.296C507.122 65.296 512.93 63.624 516.978 60.544Z"/>
<path d="M542.842 64.416C548.474 64.416 554.986 62.568 559.298 59.136C560.706 57.992 560.266 57.112 559.65 55.44L557.89 50.864C557.274 49.192 555.954 48.488 554.634 49.28C551.642 50.952 547.858 52.976 544.514 52.976C538.53 52.976 534.658 50.248 532.898 46.376L557.45 43.56C560.53 43.208 560.882 41.712 560.882 38.192C560.882 25.96 553.226 18.304 541.874 18.304C527.266 18.304 519.786 28.776 519.786 41.36C519.786 55 528.85 64.416 542.842 64.416ZM540.994 29.744C544.778 29.744 547.418 31.856 548.21 35.024L532.37 36.872C533.426 31.768 536.418 29.744 540.994 29.744Z"/>
<path d="M577.682 61.6V42.768C577.682 34.672 581.466 31.064 587.274 31.064C591.498 31.064 594.05 34.144 594.05 40.568V59.84C594.05 62.216 595.194 63.36 597.57 63.36H602.85C605.226 63.36 606.37 62.216 606.37 59.84V36.608C606.37 23.848 600.034 18.304 591.498 18.304C586.57 18.304 581.026 20.768 577.682 25.96V19.36C577.682 16.984 576.538 15.84 574.162 15.84H568.882C566.506 15.84 565.362 16.984 565.362 19.36V61.6C565.362 63.976 566.506 65.12 568.882 65.12H574.162C576.538 65.12 577.682 63.976 577.682 61.6Z"/>
<path d="M647.627 60.544C649.123 59.488 648.683 58.344 647.979 56.848L645.691 51.744C644.987 50.072 643.755 49.368 642.435 50.16C640.499 51.392 637.947 52.712 635.659 52.712C631.963 52.712 629.675 50.864 629.675 45.232V36.784L641.819 37.488C643.579 37.576 644.811 36.168 644.811 34.496V27.456C644.811 25.784 644.283 24.816 642.347 24.728L629.675 23.936V13.2C629.675 11.44 628.795 10.56 627.035 10.56H619.995C618.235 10.56 617.355 11.44 617.355 13.2V23.232L612.779 22.968C611.019 22.88 609.787 24.288 609.787 25.96V33C609.787 34.672 610.315 35.64 612.251 35.728L617.355 35.992V47.432C617.355 59.312 622.899 65.296 632.491 65.296C637.771 65.296 643.579 63.624 647.627 60.544Z"/>
<path d="M658.708 15.048C662.756 15.048 666.188 11.616 666.188 7.48C666.188 3.432 662.756 0 658.708 0C654.66 0 651.227 3.432 651.227 7.48C651.227 11.616 654.66 15.048 658.708 15.048ZM664.867 59.84V24.64C664.867 22.264 663.723 21.12 661.347 21.12H656.068C653.692 21.12 652.547 22.264 652.547 24.64V59.84C652.547 62.216 653.692 63.36 656.068 63.36H661.347C663.723 63.36 664.867 62.216 664.867 59.84Z"/>
<path d="M706.797 66C707.941 66 708.733 65.648 709.173 64.856C709.349 64.416 709.437 63.976 709.437 63.36V37.576C709.437 25.08 701.693 17.424 689.373 17.424C682.685 17.424 676.261 19.448 672.125 22.704C671.157 23.408 670.981 24.112 671.157 24.992C671.333 25.432 671.509 25.872 671.773 26.4L673.093 28.952L674.325 31.504C675.205 33.176 676.261 33.88 677.581 33.088C681.013 30.976 684.709 29.744 687.965 29.744C692.717 29.744 695.885 31.944 696.853 36.168C696.941 36.696 697.029 37.224 697.117 37.84C693.773 36.432 689.989 35.552 686.645 35.552C674.413 35.552 669.573 42.24 669.573 49.896C669.573 58.168 675.821 64.416 684.885 64.416C685.325 64.416 685.853 64.416 686.381 64.328C690.253 63.976 694.389 62.216 697.117 59.576V63.36C697.117 65.12 697.997 66 699.757 66H706.797ZM687.965 53.416C684.709 53.416 681.893 52.008 681.893 49.544C681.893 46.992 683.917 45.672 687.965 45.672C690.781 45.672 694.125 46.288 697.117 47.432V47.784C697.117 48.312 697.029 48.84 696.765 49.368C695.621 52.008 691.573 53.416 687.965 53.416Z"/>
<path d="M728.516 59.84V3.52C728.516 1.144 727.372 0 724.996 0H719.276C716.9 0 715.756 1.144 715.756 3.52V59.84C715.756 62.216 716.9 63.36 719.276 63.36H724.996C727.372 63.36 728.516 62.216 728.516 59.84Z"/>
</mask>
<path d="M12.76 59.84V26.576L24.024 43.472C24.728 44.616 25.52 44.88 26.312 44.88H30.8C31.592 44.88 32.296 44.704 33.088 43.56L43.912 27.632V61.6C43.912 63.976 45.056 65.12 47.432 65.12H53.152C55.528 65.12 56.672 63.976 56.672 61.6V7.92C56.672 5.544 55.528 4.4 53.152 4.4H47.432C45.584 4.4 44.88 5.28 44.088 6.512L28.952 28.688L12.32 3.872C11.616 2.816 10.736 2.64 9.24 2.64H3.52C1.144 2.64 0 3.784 0 6.16V59.84C0 62.216 1.144 63.36 3.52 63.36H9.24C11.616 63.36 12.76 62.216 12.76 59.84Z" fill="#79E1CF"/>
<path d="M99.8511 66C100.995 66 101.787 65.648 102.227 64.856C102.403 64.416 102.491 63.976 102.491 63.36V37.576C102.491 25.08 94.7471 17.424 82.4271 17.424C75.7391 17.424 69.3151 19.448 65.1791 22.704C64.2111 23.408 64.0351 24.112 64.2111 24.992C64.3871 25.432 64.5631 25.872 64.8271 26.4L66.1471 28.952L67.3791 31.504C68.2591 33.176 69.3151 33.88 70.6351 33.088C74.0671 30.976 77.7631 29.744 81.0191 29.744C85.7711 29.744 88.9391 31.944 89.9071 36.168C89.9951 36.696 90.0831 37.224 90.1711 37.84C86.8271 36.432 83.0431 35.552 79.6991 35.552C67.4671 35.552 62.6271 42.24 62.6271 49.896C62.6271 58.168 68.8751 64.416 77.9391 64.416C78.3791 64.416 78.9071 64.416 79.4351 64.328C83.3071 63.976 87.4431 62.216 90.1711 59.576V63.36C90.1711 65.12 91.0511 66 92.8111 66H99.8511ZM81.0191 53.416C77.7631 53.416 74.9471 52.008 74.9471 49.544C74.9471 46.992 76.9711 45.672 81.0191 45.672C83.8351 45.672 87.1791 46.288 90.1711 47.432V47.784C90.1711 48.312 90.0831 48.84 89.8191 49.368C88.6751 52.008 84.6271 53.416 81.0191 53.416Z" fill="#79E1CF"/>
<path d="M143.835 65.208L148.323 62.04C150.347 60.632 150.963 59.312 149.555 57.376L137.587 41.536L149.731 29.392C151.403 27.72 150.787 26.136 149.203 24.64L144.803 20.416C143.131 18.744 141.547 19.184 140.051 20.768L129.667 31.152L119.459 17.688C118.051 15.752 116.819 15.136 114.795 16.544L110.307 19.712C108.283 21.12 107.667 22.44 109.075 24.376L120.867 39.952L106.435 54.472C104.939 56.056 105.203 57.552 106.963 59.312L111.363 63.536C113.035 65.208 114.443 64.68 116.115 63.008L128.787 50.336L139.171 64.064C140.579 66 141.811 66.616 143.835 65.208Z" fill="#79E1CF"/>
<path d="M161.012 15.048C165.06 15.048 168.493 11.616 168.493 7.48C168.493 3.432 165.06 0 161.012 0C156.964 0 153.533 3.432 153.533 7.48C153.533 11.616 156.964 15.048 161.012 15.048ZM167.173 59.84V24.64C167.173 22.264 166.028 21.12 163.652 21.12H158.372C155.996 21.12 154.852 22.264 154.852 24.64V59.84C154.852 62.216 155.996 63.36 158.372 63.36H163.652C166.028 63.36 167.173 62.216 167.173 59.84Z" fill="#79E1CF"/>
<path d="M213.942 61.6V43.824C213.942 35.64 216.406 32.032 222.214 32.032C226.438 32.032 228.99 35.112 228.99 41.624V59.84C228.99 62.216 230.134 63.36 232.51 63.36H237.79C240.166 63.36 241.31 62.216 241.31 59.84V37.664C241.31 24.904 234.974 19.36 226.438 19.36C220.894 19.36 215.614 21.912 212.534 27.456C210.158 21.12 205.142 18.304 199.07 18.304C194.318 18.304 189.566 20.68 186.574 25.52V19.36C186.574 16.984 185.43 15.84 183.054 15.84H177.774C175.398 15.84 174.254 16.984 174.254 19.36V59.84C174.254 62.216 175.398 63.36 177.774 63.36H183.054C185.43 63.36 186.574 62.216 186.574 59.84V42.768C186.574 34.584 189.038 30.976 194.846 30.976C199.07 30.976 201.622 34.056 201.622 40.568V61.6C201.622 63.976 202.766 65.12 205.142 65.12H210.422C212.798 65.12 213.942 63.976 213.942 61.6Z" fill="#79E1CF"/>
<path d="M275.782 59.84C275.782 62.216 276.926 63.36 279.302 63.36H284.582C286.958 63.36 288.102 62.216 288.102 59.84V19.36C288.102 16.984 286.958 15.84 284.582 15.84H279.302C276.926 15.84 275.782 16.984 275.782 19.36V39.952C275.782 48.048 271.998 51.656 266.19 51.656C261.966 51.656 259.414 48.576 259.414 42.152V22.88C259.414 20.504 258.27 19.36 255.894 19.36H250.614C248.238 19.36 247.094 20.504 247.094 22.88V46.112C247.094 58.872 253.43 64.416 261.966 64.416C266.894 64.416 272.438 61.952 275.782 56.76V59.84Z" fill="#79E1CF"/>
<path d="M334.815 61.6V43.824C334.815 35.64 337.279 32.032 343.087 32.032C347.311 32.032 349.863 35.112 349.863 41.624V59.84C349.863 62.216 351.007 63.36 353.383 63.36H358.663C361.039 63.36 362.183 62.216 362.183 59.84V37.664C362.183 24.904 355.847 19.36 347.311 19.36C341.767 19.36 336.487 21.912 333.407 27.456C331.031 21.12 326.015 18.304 319.943 18.304C315.191 18.304 310.439 20.68 307.447 25.52V19.36C307.447 16.984 306.303 15.84 303.927 15.84H298.647C296.271 15.84 295.127 16.984 295.127 19.36V59.84C295.127 62.216 296.271 63.36 298.647 63.36H303.927C306.303 63.36 307.447 62.216 307.447 59.84V42.768C307.447 34.584 309.911 30.976 315.719 30.976C319.943 30.976 322.495 34.056 322.495 40.568V61.6C322.495 63.976 323.639 65.12 326.015 65.12H331.295C333.671 65.12 334.815 63.976 334.815 61.6Z" fill="#79E1CF"/>
<path d="M395.88 65.12C398.256 65.12 399.4 63.976 399.4 61.6V50.072L403.888 49.632C417.968 48.224 430.112 41.888 430.112 26.928C430.112 10.472 419.024 4.4 404.064 4.4H390.16C387.784 4.4 386.64 5.544 386.64 7.92V61.6C386.64 63.976 387.784 65.12 390.16 65.12H395.88ZM404.416 17.6C411.192 17.6 417.352 19.712 417.352 26.928C417.352 32.824 411.104 35.816 404.24 36.432L399.4 36.872V17.6H404.416Z" fill="#79E1CF"/>
<path d="M455.119 64.416C468.847 64.416 477.207 54.56 477.207 41.36C477.207 28.16 468.847 18.304 455.119 18.304C441.391 18.304 433.031 28.16 433.031 41.36C433.031 54.56 441.391 64.416 455.119 64.416ZM455.119 51.656C449.751 51.656 445.351 48.84 445.351 41.36C445.351 33.88 449.751 31.064 455.119 31.064C460.487 31.064 464.887 33.88 464.887 41.36C464.887 48.84 460.487 51.656 455.119 51.656Z" fill="#79E1CF"/>
<path d="M516.978 60.544C518.474 59.488 518.034 58.344 517.33 56.848L515.042 51.744C514.338 50.072 513.106 49.368 511.786 50.16C509.85 51.392 507.298 52.712 505.01 52.712C501.314 52.712 499.026 50.864 499.026 45.232V36.784L511.17 37.488C512.93 37.576 514.162 36.168 514.162 34.496V27.456C514.162 25.784 513.634 24.816 511.698 24.728L499.026 23.936V13.2C499.026 11.44 498.146 10.56 496.386 10.56H489.346C487.586 10.56 486.706 11.44 486.706 13.2V23.232L482.13 22.968C480.37 22.88 479.138 24.288 479.138 25.96V33C479.138 34.672 479.666 35.64 481.602 35.728L486.706 35.992V47.432C486.706 59.312 492.25 65.296 501.842 65.296C507.122 65.296 512.93 63.624 516.978 60.544Z" fill="#79E1CF"/>
<path d="M542.842 64.416C548.474 64.416 554.986 62.568 559.298 59.136C560.706 57.992 560.266 57.112 559.65 55.44L557.89 50.864C557.274 49.192 555.954 48.488 554.634 49.28C551.642 50.952 547.858 52.976 544.514 52.976C538.53 52.976 534.658 50.248 532.898 46.376L557.45 43.56C560.53 43.208 560.882 41.712 560.882 38.192C560.882 25.96 553.226 18.304 541.874 18.304C527.266 18.304 519.786 28.776 519.786 41.36C519.786 55 528.85 64.416 542.842 64.416ZM540.994 29.744C544.778 29.744 547.418 31.856 548.21 35.024L532.37 36.872C533.426 31.768 536.418 29.744 540.994 29.744Z" fill="#79E1CF"/>
<path d="M577.682 61.6V42.768C577.682 34.672 581.466 31.064 587.274 31.064C591.498 31.064 594.05 34.144 594.05 40.568V59.84C594.05 62.216 595.194 63.36 597.57 63.36H602.85C605.226 63.36 606.37 62.216 606.37 59.84V36.608C606.37 23.848 600.034 18.304 591.498 18.304C586.57 18.304 581.026 20.768 577.682 25.96V19.36C577.682 16.984 576.538 15.84 574.162 15.84H568.882C566.506 15.84 565.362 16.984 565.362 19.36V61.6C565.362 63.976 566.506 65.12 568.882 65.12H574.162C576.538 65.12 577.682 63.976 577.682 61.6Z" fill="#79E1CF"/>
<path d="M647.627 60.544C649.123 59.488 648.683 58.344 647.979 56.848L645.691 51.744C644.987 50.072 643.755 49.368 642.435 50.16C640.499 51.392 637.947 52.712 635.659 52.712C631.963 52.712 629.675 50.864 629.675 45.232V36.784L641.819 37.488C643.579 37.576 644.811 36.168 644.811 34.496V27.456C644.811 25.784 644.283 24.816 642.347 24.728L629.675 23.936V13.2C629.675 11.44 628.795 10.56 627.035 10.56H619.995C618.235 10.56 617.355 11.44 617.355 13.2V23.232L612.779 22.968C611.019 22.88 609.787 24.288 609.787 25.96V33C609.787 34.672 610.315 35.64 612.251 35.728L617.355 35.992V47.432C617.355 59.312 622.899 65.296 632.491 65.296C637.771 65.296 643.579 63.624 647.627 60.544Z" fill="#79E1CF"/>
<path d="M658.708 15.048C662.756 15.048 666.188 11.616 666.188 7.48C666.188 3.432 662.756 0 658.708 0C654.66 0 651.227 3.432 651.227 7.48C651.227 11.616 654.66 15.048 658.708 15.048ZM664.867 59.84V24.64C664.867 22.264 663.723 21.12 661.347 21.12H656.068C653.692 21.12 652.547 22.264 652.547 24.64V59.84C652.547 62.216 653.692 63.36 656.068 63.36H661.347C663.723 63.36 664.867 62.216 664.867 59.84Z" fill="#79E1CF"/>
<path d="M706.797 66C707.941 66 708.733 65.648 709.173 64.856C709.349 64.416 709.437 63.976 709.437 63.36V37.576C709.437 25.08 701.693 17.424 689.373 17.424C682.685 17.424 676.261 19.448 672.125 22.704C671.157 23.408 670.981 24.112 671.157 24.992C671.333 25.432 671.509 25.872 671.773 26.4L673.093 28.952L674.325 31.504C675.205 33.176 676.261 33.88 677.581 33.088C681.013 30.976 684.709 29.744 687.965 29.744C692.717 29.744 695.885 31.944 696.853 36.168C696.941 36.696 697.029 37.224 697.117 37.84C693.773 36.432 689.989 35.552 686.645 35.552C674.413 35.552 669.573 42.24 669.573 49.896C669.573 58.168 675.821 64.416 684.885 64.416C685.325 64.416 685.853 64.416 686.381 64.328C690.253 63.976 694.389 62.216 697.117 59.576V63.36C697.117 65.12 697.997 66 699.757 66H706.797ZM687.965 53.416C684.709 53.416 681.893 52.008 681.893 49.544C681.893 46.992 683.917 45.672 687.965 45.672C690.781 45.672 694.125 46.288 697.117 47.432V47.784C697.117 48.312 697.029 48.84 696.765 49.368C695.621 52.008 691.573 53.416 687.965 53.416Z" fill="#79E1CF"/>
<path d="M728.516 59.84V3.52C728.516 1.144 727.372 0 724.996 0H719.276C716.9 0 715.756 1.144 715.756 3.52V59.84C715.756 62.216 716.9 63.36 719.276 63.36H724.996C727.372 63.36 728.516 62.216 728.516 59.84Z" fill="#79E1CF"/>
<path d="M12.76 59.84V26.576L24.024 43.472C24.728 44.616 25.52 44.88 26.312 44.88H30.8C31.592 44.88 32.296 44.704 33.088 43.56L43.912 27.632V61.6C43.912 63.976 45.056 65.12 47.432 65.12H53.152C55.528 65.12 56.672 63.976 56.672 61.6V7.92C56.672 5.544 55.528 4.4 53.152 4.4H47.432C45.584 4.4 44.88 5.28 44.088 6.512L28.952 28.688L12.32 3.872C11.616 2.816 10.736 2.64 9.24 2.64H3.52C1.144 2.64 0 3.784 0 6.16V59.84C0 62.216 1.144 63.36 3.52 63.36H9.24C11.616 63.36 12.76 62.216 12.76 59.84Z" stroke="black" stroke-width="3.5" mask="url(#path-1-inside-1_607_30)"/>
<path d="M99.8511 66C100.995 66 101.787 65.648 102.227 64.856C102.403 64.416 102.491 63.976 102.491 63.36V37.576C102.491 25.08 94.7471 17.424 82.4271 17.424C75.7391 17.424 69.3151 19.448 65.1791 22.704C64.2111 23.408 64.0351 24.112 64.2111 24.992C64.3871 25.432 64.5631 25.872 64.8271 26.4L66.1471 28.952L67.3791 31.504C68.2591 33.176 69.3151 33.88 70.6351 33.088C74.0671 30.976 77.7631 29.744 81.0191 29.744C85.7711 29.744 88.9391 31.944 89.9071 36.168C89.9951 36.696 90.0831 37.224 90.1711 37.84C86.8271 36.432 83.0431 35.552 79.6991 35.552C67.4671 35.552 62.6271 42.24 62.6271 49.896C62.6271 58.168 68.8751 64.416 77.9391 64.416C78.3791 64.416 78.9071 64.416 79.4351 64.328C83.3071 63.976 87.4431 62.216 90.1711 59.576V63.36C90.1711 65.12 91.0511 66 92.8111 66H99.8511ZM81.0191 53.416C77.7631 53.416 74.9471 52.008 74.9471 49.544C74.9471 46.992 76.9711 45.672 81.0191 45.672C83.8351 45.672 87.1791 46.288 90.1711 47.432V47.784C90.1711 48.312 90.0831 48.84 89.8191 49.368C88.6751 52.008 84.6271 53.416 81.0191 53.416Z" stroke="black" stroke-width="3.5" mask="url(#path-1-inside-1_607_30)"/>
<path d="M143.835 65.208L148.323 62.04C150.347 60.632 150.963 59.312 149.555 57.376L137.587 41.536L149.731 29.392C151.403 27.72 150.787 26.136 149.203 24.64L144.803 20.416C143.131 18.744 141.547 19.184 140.051 20.768L129.667 31.152L119.459 17.688C118.051 15.752 116.819 15.136 114.795 16.544L110.307 19.712C108.283 21.12 107.667 22.44 109.075 24.376L120.867 39.952L106.435 54.472C104.939 56.056 105.203 57.552 106.963 59.312L111.363 63.536C113.035 65.208 114.443 64.68 116.115 63.008L128.787 50.336L139.171 64.064C140.579 66 141.811 66.616 143.835 65.208Z" stroke="black" stroke-width="3.5" mask="url(#path-1-inside-1_607_30)"/>
<path d="M161.012 15.048C165.06 15.048 168.493 11.616 168.493 7.48C168.493 3.432 165.06 0 161.012 0C156.964 0 153.533 3.432 153.533 7.48C153.533 11.616 156.964 15.048 161.012 15.048ZM167.173 59.84V24.64C167.173 22.264 166.028 21.12 163.652 21.12H158.372C155.996 21.12 154.852 22.264 154.852 24.64V59.84C154.852 62.216 155.996 63.36 158.372 63.36H163.652C166.028 63.36 167.173 62.216 167.173 59.84Z" stroke="black" stroke-width="3.5" mask="url(#path-1-inside-1_607_30)"/>
<path d="M213.942 61.6V43.824C213.942 35.64 216.406 32.032 222.214 32.032C226.438 32.032 228.99 35.112 228.99 41.624V59.84C228.99 62.216 230.134 63.36 232.51 63.36H237.79C240.166 63.36 241.31 62.216 241.31 59.84V37.664C241.31 24.904 234.974 19.36 226.438 19.36C220.894 19.36 215.614 21.912 212.534 27.456C210.158 21.12 205.142 18.304 199.07 18.304C194.318 18.304 189.566 20.68 186.574 25.52V19.36C186.574 16.984 185.43 15.84 183.054 15.84H177.774C175.398 15.84 174.254 16.984 174.254 19.36V59.84C174.254 62.216 175.398 63.36 177.774 63.36H183.054C185.43 63.36 186.574 62.216 186.574 59.84V42.768C186.574 34.584 189.038 30.976 194.846 30.976C199.07 30.976 201.622 34.056 201.622 40.568V61.6C201.622 63.976 202.766 65.12 205.142 65.12H210.422C212.798 65.12 213.942 63.976 213.942 61.6Z" stroke="black" stroke-width="3.5" mask="url(#path-1-inside-1_607_30)"/>
<path d="M275.782 59.84C275.782 62.216 276.926 63.36 279.302 63.36H284.582C286.958 63.36 288.102 62.216 288.102 59.84V19.36C288.102 16.984 286.958 15.84 284.582 15.84H279.302C276.926 15.84 275.782 16.984 275.782 19.36V39.952C275.782 48.048 271.998 51.656 266.19 51.656C261.966 51.656 259.414 48.576 259.414 42.152V22.88C259.414 20.504 258.27 19.36 255.894 19.36H250.614C248.238 19.36 247.094 20.504 247.094 22.88V46.112C247.094 58.872 253.43 64.416 261.966 64.416C266.894 64.416 272.438 61.952 275.782 56.76V59.84Z" stroke="black" stroke-width="3.5" mask="url(#path-1-inside-1_607_30)"/>
<path d="M334.815 61.6V43.824C334.815 35.64 337.279 32.032 343.087 32.032C347.311 32.032 349.863 35.112 349.863 41.624V59.84C349.863 62.216 351.007 63.36 353.383 63.36H358.663C361.039 63.36 362.183 62.216 362.183 59.84V37.664C362.183 24.904 355.847 19.36 347.311 19.36C341.767 19.36 336.487 21.912 333.407 27.456C331.031 21.12 326.015 18.304 319.943 18.304C315.191 18.304 310.439 20.68 307.447 25.52V19.36C307.447 16.984 306.303 15.84 303.927 15.84H298.647C296.271 15.84 295.127 16.984 295.127 19.36V59.84C295.127 62.216 296.271 63.36 298.647 63.36H303.927C306.303 63.36 307.447 62.216 307.447 59.84V42.768C307.447 34.584 309.911 30.976 315.719 30.976C319.943 30.976 322.495 34.056 322.495 40.568V61.6C322.495 63.976 323.639 65.12 326.015 65.12H331.295C333.671 65.12 334.815 63.976 334.815 61.6Z" stroke="black" stroke-width="3.5" mask="url(#path-1-inside-1_607_30)"/>
<path d="M395.88 65.12C398.256 65.12 399.4 63.976 399.4 61.6V50.072L403.888 49.632C417.968 48.224 430.112 41.888 430.112 26.928C430.112 10.472 419.024 4.4 404.064 4.4H390.16C387.784 4.4 386.64 5.544 386.64 7.92V61.6C386.64 63.976 387.784 65.12 390.16 65.12H395.88ZM404.416 17.6C411.192 17.6 417.352 19.712 417.352 26.928C417.352 32.824 411.104 35.816 404.24 36.432L399.4 36.872V17.6H404.416Z" stroke="black" stroke-width="3.5" mask="url(#path-1-inside-1_607_30)"/>
<path d="M455.119 64.416C468.847 64.416 477.207 54.56 477.207 41.36C477.207 28.16 468.847 18.304 455.119 18.304C441.391 18.304 433.031 28.16 433.031 41.36C433.031 54.56 441.391 64.416 455.119 64.416ZM455.119 51.656C449.751 51.656 445.351 48.84 445.351 41.36C445.351 33.88 449.751 31.064 455.119 31.064C460.487 31.064 464.887 33.88 464.887 41.36C464.887 48.84 460.487 51.656 455.119 51.656Z" stroke="black" stroke-width="3.5" mask="url(#path-1-inside-1_607_30)"/>
<path d="M516.978 60.544C518.474 59.488 518.034 58.344 517.33 56.848L515.042 51.744C514.338 50.072 513.106 49.368 511.786 50.16C509.85 51.392 507.298 52.712 505.01 52.712C501.314 52.712 499.026 50.864 499.026 45.232V36.784L511.17 37.488C512.93 37.576 514.162 36.168 514.162 34.496V27.456C514.162 25.784 513.634 24.816 511.698 24.728L499.026 23.936V13.2C499.026 11.44 498.146 10.56 496.386 10.56H489.346C487.586 10.56 486.706 11.44 486.706 13.2V23.232L482.13 22.968C480.37 22.88 479.138 24.288 479.138 25.96V33C479.138 34.672 479.666 35.64 481.602 35.728L486.706 35.992V47.432C486.706 59.312 492.25 65.296 501.842 65.296C507.122 65.296 512.93 63.624 516.978 60.544Z" stroke="black" stroke-width="3.5" mask="url(#path-1-inside-1_607_30)"/>
<path d="M542.842 64.416C548.474 64.416 554.986 62.568 559.298 59.136C560.706 57.992 560.266 57.112 559.65 55.44L557.89 50.864C557.274 49.192 555.954 48.488 554.634 49.28C551.642 50.952 547.858 52.976 544.514 52.976C538.53 52.976 534.658 50.248 532.898 46.376L557.45 43.56C560.53 43.208 560.882 41.712 560.882 38.192C560.882 25.96 553.226 18.304 541.874 18.304C527.266 18.304 519.786 28.776 519.786 41.36C519.786 55 528.85 64.416 542.842 64.416ZM540.994 29.744C544.778 29.744 547.418 31.856 548.21 35.024L532.37 36.872C533.426 31.768 536.418 29.744 540.994 29.744Z" stroke="black" stroke-width="3.5" mask="url(#path-1-inside-1_607_30)"/>
<path d="M577.682 61.6V42.768C577.682 34.672 581.466 31.064 587.274 31.064C591.498 31.064 594.05 34.144 594.05 40.568V59.84C594.05 62.216 595.194 63.36 597.57 63.36H602.85C605.226 63.36 606.37 62.216 606.37 59.84V36.608C606.37 23.848 600.034 18.304 591.498 18.304C586.57 18.304 581.026 20.768 577.682 25.96V19.36C577.682 16.984 576.538 15.84 574.162 15.84H568.882C566.506 15.84 565.362 16.984 565.362 19.36V61.6C565.362 63.976 566.506 65.12 568.882 65.12H574.162C576.538 65.12 577.682 63.976 577.682 61.6Z" stroke="black" stroke-width="3.5" mask="url(#path-1-inside-1_607_30)"/>
<path d="M647.627 60.544C649.123 59.488 648.683 58.344 647.979 56.848L645.691 51.744C644.987 50.072 643.755 49.368 642.435 50.16C640.499 51.392 637.947 52.712 635.659 52.712C631.963 52.712 629.675 50.864 629.675 45.232V36.784L641.819 37.488C643.579 37.576 644.811 36.168 644.811 34.496V27.456C644.811 25.784 644.283 24.816 642.347 24.728L629.675 23.936V13.2C629.675 11.44 628.795 10.56 627.035 10.56H619.995C618.235 10.56 617.355 11.44 617.355 13.2V23.232L612.779 22.968C611.019 22.88 609.787 24.288 609.787 25.96V33C609.787 34.672 610.315 35.64 612.251 35.728L617.355 35.992V47.432C617.355 59.312 622.899 65.296 632.491 65.296C637.771 65.296 643.579 63.624 647.627 60.544Z" stroke="black" stroke-width="3.5" mask="url(#path-1-inside-1_607_30)"/>
<path d="M658.708 15.048C662.756 15.048 666.188 11.616 666.188 7.48C666.188 3.432 662.756 0 658.708 0C654.66 0 651.227 3.432 651.227 7.48C651.227 11.616 654.66 15.048 658.708 15.048ZM664.867 59.84V24.64C664.867 22.264 663.723 21.12 661.347 21.12H656.068C653.692 21.12 652.547 22.264 652.547 24.64V59.84C652.547 62.216 653.692 63.36 656.068 63.36H661.347C663.723 63.36 664.867 62.216 664.867 59.84Z" stroke="black" stroke-width="3.5" mask="url(#path-1-inside-1_607_30)"/>
<path d="M706.797 66C707.941 66 708.733 65.648 709.173 64.856C709.349 64.416 709.437 63.976 709.437 63.36V37.576C709.437 25.08 701.693 17.424 689.373 17.424C682.685 17.424 676.261 19.448 672.125 22.704C671.157 23.408 670.981 24.112 671.157 24.992C671.333 25.432 671.509 25.872 671.773 26.4L673.093 28.952L674.325 31.504C675.205 33.176 676.261 33.88 677.581 33.088C681.013 30.976 684.709 29.744 687.965 29.744C692.717 29.744 695.885 31.944 696.853 36.168C696.941 36.696 697.029 37.224 697.117 37.84C693.773 36.432 689.989 35.552 686.645 35.552C674.413 35.552 669.573 42.24 669.573 49.896C669.573 58.168 675.821 64.416 684.885 64.416C685.325 64.416 685.853 64.416 686.381 64.328C690.253 63.976 694.389 62.216 697.117 59.576V63.36C697.117 65.12 697.997 66 699.757 66H706.797ZM687.965 53.416C684.709 53.416 681.893 52.008 681.893 49.544C681.893 46.992 683.917 45.672 687.965 45.672C690.781 45.672 694.125 46.288 697.117 47.432V47.784C697.117 48.312 697.029 48.84 696.765 49.368C695.621 52.008 691.573 53.416 687.965 53.416Z" stroke="black" stroke-width="3.5" mask="url(#path-1-inside-1_607_30)"/>
<path d="M728.516 59.84V3.52C728.516 1.144 727.372 0 724.996 0H719.276C716.9 0 715.756 1.144 715.756 3.52V59.84C715.756 62.216 716.9 63.36 719.276 63.36H724.996C727.372 63.36 728.516 62.216 728.516 59.84Z" stroke="black" stroke-width="3.5" mask="url(#path-1-inside-1_607_30)"/>
</svg>
